<svg width="101" height="21" viewBox="0 0 101 21" fill="none" xmlns="http://www.w3.org/2000/svg">
<path d="M0.491303 20.3486V6.43787H4.52491V20.3486H0.491303ZM2.50811 4.49863C1.76689 4.49863 1.16357 4.28316 0.698154 3.85222C0.232738 3.42128 3.01514e-05 2.88691 3.01514e-05 2.24912C3.01514e-05 1.61133 0.232738 1.07696 0.698154 0.646024C1.16357 0.215082 1.76689 -0.0003882 2.50811 -0.0003882C3.24932 -0.0003882 3.85264 0.206464 4.31806 0.620168C4.78347 1.01663 5.01618 1.53376 5.01618 2.17155C5.01618 2.84382 4.78347 3.40404 4.31806 3.85222C3.86988 4.28316 3.26656 4.49863 2.50811 4.49863ZM16.7235 6.23102C17.8267 6.23102 18.8092 6.4551 19.6711 6.90328C20.5502 7.33422 21.2398 8.00649 21.7396 8.92008C22.2395 9.81644 22.4895 10.9714 22.4895 12.3848V20.3486H18.4559V13.0054C18.4559 11.885 18.2059 11.0576 17.706 10.5232C17.2234 9.98882 16.5339 9.72164 15.6375 9.72164C14.9997 9.72164 14.4223 9.85954 13.9051 10.1353C13.4052 10.3939 13.0088 10.799 12.7157 11.3506C12.4399 11.9022 12.302 12.6089 12.302 13.4708V20.3486H8.26844V6.43787H12.121V10.2905L11.3971 9.12694C11.897 8.1961 12.6123 7.48074 13.5432 6.98085C14.474 6.48096 15.5341 6.23102 16.7235 6.23102ZM31.8342 20.5555C30.1966 20.5555 28.921 20.1418 28.0074 19.3144C27.0938 18.4697 26.637 17.22 26.637 15.5652V3.36095H30.6706V15.5135C30.6706 16.0996 30.8258 16.5564 31.136 16.8839C31.4463 17.1941 31.8686 17.3493 32.403 17.3493C33.0408 17.3493 33.5838 17.1769 34.032 16.8322L35.1179 19.6764C34.7042 19.9694 34.2043 20.1935 33.6183 20.3486C33.0494 20.4865 32.4547 20.5555 31.8342 20.5555ZM24.4909 9.85092V6.74814H34.1354V9.85092H24.4909ZM42.9258 20.5555C41.6157 20.5555 40.4349 20.2624 39.3834 19.6764C38.3319 19.073 37.4959 18.237 36.8754 17.1683C36.272 16.0996 35.9704 14.8412 35.9704 13.3932C35.9704 11.9281 36.272 10.6611 36.8754 9.59235C37.4959 8.52362 38.3319 7.69621 39.3834 7.11013C40.4349 6.52406 41.6157 6.23102 42.9258 6.23102C44.0979 6.23102 45.1236 6.48958 46.0027 7.00671C46.8818 7.52384 47.5627 8.30815 48.0453 9.35964C48.528 10.4111 48.7693 11.7557 48.7693 13.3932C48.7693 15.0136 48.5366 16.3581 48.0712 17.4269C47.6058 18.4784 46.9335 19.2627 46.0544 19.7798C45.1925 20.2969 44.1496 20.5555 42.9258 20.5555ZM43.6239 17.2459C44.2789 17.2459 44.8736 17.0907 45.408 16.7804C45.9423 16.4702 46.3647 16.0306 46.6749 15.4618C47.0025 14.8757 47.1662 14.1862 47.1662 13.3932C47.1662 12.5831 47.0025 11.8936 46.6749 11.3247C46.3647 10.7559 45.9423 10.3163 45.408 10.0061C44.8736 9.69578 44.2789 9.54064 43.6239 9.54064C42.9516 9.54064 42.3483 9.69578 41.8139 10.0061C41.2796 10.3163 40.8486 10.7559 40.5211 11.3247C40.2108 11.8936 40.0557 12.5831 40.0557 13.3932C40.0557 14.1862 40.2108 14.8757 40.5211 15.4618C40.8486 16.0306 41.2796 16.4702 41.8139 16.7804C42.3483 17.0907 42.9516 17.2459 43.6239 17.2459ZM47.2696 20.3486V17.5044L47.3472 13.3674L47.0887 9.25622V1.16315H51.1223V20.3486H47.2696ZM61.7592 20.5555C60.1733 20.5555 58.777 20.2452 57.5704 19.6247C56.381 19.0041 55.4588 18.1595 54.8038 17.0907C54.1487 16.0048 53.8212 14.7723 53.8212 13.3932C53.8212 11.997 54.1401 10.7645 54.7779 9.69578C55.4329 8.60981 56.3207 7.76516 57.4411 7.16185C58.5616 6.54129 59.8285 6.23102 61.242 6.23102C62.6038 6.23102 63.8277 6.52406 64.9136 7.11013C66.0168 7.67898 66.8873 8.50638 67.5251 9.59235C68.1629 10.6611 68.4818 11.9453 68.4818 13.445C68.4818 13.6001 68.4732 13.7811 68.456 13.9879C68.4387 14.1776 68.4215 14.3586 68.4043 14.5309H57.105V12.178H66.284L64.7326 12.8761C64.7326 12.1521 64.5861 11.523 64.2931 10.9886C64 10.4542 63.595 10.0405 63.0778 9.74749C62.5607 9.43721 61.9574 9.28208 61.2679 9.28208C60.5784 9.28208 59.9664 9.43721 59.4321 9.74749C58.9149 10.0405 58.5099 10.4629 58.2168 11.0145C57.9238 11.5488 57.7773 12.1866 57.7773 12.9278V13.5484C57.7773 14.3068 57.941 14.9791 58.2685 15.5652C58.6133 16.134 59.0873 16.5736 59.6906 16.8839C60.3112 17.1769 61.0352 17.3234 61.8626 17.3234C62.6038 17.3234 63.2502 17.2114 63.8018 16.9873C64.3707 16.7632 64.8878 16.4271 65.3532 15.9789L67.4993 18.306C66.8615 19.03 66.0599 19.5902 65.0946 19.9866C64.1293 20.3659 63.0175 20.5555 61.7592 20.5555ZM77.8899 20.5555C76.3903 20.5555 75.0543 20.2538 73.8822 19.6505C72.71 19.03 71.7878 18.1767 71.1155 17.0907C70.4605 16.0048 70.133 14.7723 70.133 13.3932C70.133 11.997 70.4605 10.7645 71.1155 9.69578C71.7878 8.60981 72.71 7.76516 73.8822 7.16185C75.0543 6.54129 76.3903 6.23102 77.8899 6.23102C79.3551 6.23102 80.6307 6.54129 81.7167 7.16185C82.8027 7.76516 83.6042 8.63566 84.1213 9.77335L80.9927 11.454C80.6307 10.799 80.1739 10.3163 79.6223 10.0061C79.0879 9.69578 78.5019 9.54064 77.8641 9.54064C77.1746 9.54064 76.554 9.69578 76.0024 10.0061C75.4508 10.3163 75.0113 10.7559 74.6837 11.3247C74.3735 11.8936 74.2183 12.5831 74.2183 13.3932C74.2183 14.2034 74.3735 14.8929 74.6837 15.4618C75.0113 16.0306 75.4508 16.4702 76.0024 16.7804C76.554 17.0907 77.1746 17.2459 77.8641 17.2459C78.5019 17.2459 79.0879 17.0993 79.6223 16.8063C80.1739 16.496 80.6307 16.0048 80.9927 15.3325L84.1213 17.039C83.6042 18.1595 82.8027 19.03 81.7167 19.6505C80.6307 20.2538 79.3551 20.5555 77.8899 20.5555ZM92.8863 20.5555C91.4038 20.5555 90.0852 20.2452 88.9302 19.6247C87.7926 19.0041 86.8876 18.1595 86.2153 17.0907C85.5603 16.0048 85.2328 14.7723 85.2328 13.3932C85.2328 11.997 85.5603 10.7645 86.2153 9.69578C86.8876 8.60981 87.7926 7.76516 88.9302 7.16185C90.0852 6.54129 91.4038 6.23102 92.8863 6.23102C94.3515 6.23102 95.6615 6.54129 96.8164 7.16185C97.9714 7.76516 98.8763 8.60119 99.5314 9.66992C100.186 10.7387 100.514 11.9798 100.514 13.3932C100.514 14.7723 100.186 16.0048 99.5314 17.0907C98.8763 18.1595 97.9714 19.0041 96.8164 19.6247C95.6615 20.2452 94.3515 20.5555 92.8863 20.5555ZM92.8863 17.2459C93.5585 17.2459 94.1619 17.0907 94.6962 16.7804C95.2306 16.4702 95.6529 16.0306 95.9632 15.4618C96.2735 14.8757 96.4286 14.1862 96.4286 13.3932C96.4286 12.5831 96.2735 11.8936 95.9632 11.3247C95.6529 10.7559 95.2306 10.3163 94.6962 10.0061C94.1619 9.69578 93.5585 9.54064 92.8863 9.54064C92.214 9.54064 91.6107 9.69578 91.0763 10.0061C90.542 10.3163 90.111 10.7559 89.7835 11.3247C89.4732 11.8936 89.3181 12.5831 89.3181 13.3932C89.3181 14.1862 89.4732 14.8757 89.7835 15.4618C90.111 16.0306 90.542 16.4702 91.0763 16.7804C91.6107 17.0907 92.214 17.2459 92.8863 17.2459Z" fill="#3B3B3B"/>
</svg>
