<svg width="160" height="35" viewBox="0 0 160 35" fill="none" xmlns="http://www.w3.org/2000/svg">
<path d="M25.4064 32.7875H10.3154L10.3611 14.7506L25.4064 8.15918V32.7875Z" fill="#BB1521"/>
<path d="M27.4362 32.7882V2.21686L87.9946 12.5451L88.3613 10.3953L27.4362 0L0 11.8015L0.861956 13.8049L4.73231 12.1401L4.67372 34.969H26.9674H27.4362H149.388V32.7882H27.4362ZM25.2553 32.7882H6.8596L6.91481 11.2009L25.2553 3.31207V32.7882Z" fill="#3266B1"/>
<path d="M43.0068 29.4082V15.8142H48.5415C49.9916 15.8142 51.2603 16.1055 52.3478 16.6881C53.4483 17.2578 54.3028 18.054 54.9113 19.0768C55.5198 20.0996 55.824 21.2777 55.824 22.6112C55.824 23.9447 55.5198 25.1229 54.9113 26.1457C54.3028 27.1684 53.4483 27.9711 52.3478 28.5537C51.2603 29.1234 49.9916 29.4082 48.5415 29.4082H43.0068ZM44.4439 28.1653H48.4639C49.6679 28.1653 50.7101 27.9323 51.5905 27.4662C52.4838 26.9872 53.1764 26.3334 53.6684 25.5048C54.1604 24.6633 54.4064 23.6987 54.4064 22.6112C54.4064 21.5108 54.1604 20.5462 53.6684 19.7176C53.1764 18.8891 52.4838 18.2417 51.5905 17.7757C50.7101 17.2966 49.6679 17.0571 48.4639 17.0571H44.4439V28.1653ZM58.7598 29.4082V19.2127H60.1386V29.4082H58.7598ZM59.4589 16.96C59.1741 16.96 58.9345 16.8629 58.7403 16.6687C58.5461 16.4745 58.449 16.2415 58.449 15.9696C58.449 15.6977 58.5461 15.4711 58.7403 15.2899C58.9345 15.0957 59.1741 14.9986 59.4589 14.9986C59.7437 14.9986 59.9832 15.0892 60.1774 15.2705C60.3716 15.4517 60.4687 15.6783 60.4687 15.9502C60.4687 16.235 60.3716 16.4745 60.1774 16.6687C59.9962 16.8629 59.7567 16.96 59.4589 16.96ZM63.9751 29.4082V19.2127H65.2956V21.9898L65.1597 21.5043C65.4445 20.7275 65.9235 20.1384 66.5968 19.7371C67.27 19.3228 68.1051 19.1156 69.1019 19.1156V20.4556C69.0502 20.4556 68.9984 20.4556 68.9466 20.4556C68.8948 20.4427 68.843 20.4362 68.7912 20.4362C67.7167 20.4362 66.8751 20.7663 66.2666 21.4266C65.6581 22.0739 65.3539 22.9996 65.3539 24.2037V29.4082H63.9751ZM75.8537 29.5053C74.7921 29.5053 73.8599 29.2852 73.0572 28.845C72.2546 28.3919 71.6266 27.7769 71.1735 27.0001C70.7204 26.2104 70.4938 25.3106 70.4938 24.3008C70.4938 23.2909 70.7074 22.3976 71.1347 21.6208C71.5749 20.844 72.1704 20.2355 72.9213 19.7953C73.6852 19.3422 74.5396 19.1156 75.4847 19.1156C76.4428 19.1156 77.2908 19.3357 78.0288 19.7759C78.7797 20.2031 79.3687 20.8116 79.796 21.6014C80.2232 22.3782 80.4368 23.278 80.4368 24.3008C80.4368 24.3655 80.4304 24.4367 80.4174 24.5144C80.4174 24.5791 80.4174 24.6503 80.4174 24.728H71.5425V23.6987H79.6795L79.1357 24.1066C79.1357 23.3686 78.9739 22.7148 78.6502 22.1451C78.3395 21.5625 77.9122 21.1094 77.3685 20.7857C76.8247 20.4621 76.1968 20.3002 75.4847 20.3002C74.7856 20.3002 74.1577 20.4621 73.601 20.7857C73.0443 21.1094 72.6106 21.5625 72.2999 22.1451C71.9891 22.7277 71.8338 23.3945 71.8338 24.1454V24.359C71.8338 25.1358 72.0021 25.822 72.3387 26.4175C72.6883 27.0001 73.1673 27.4597 73.7758 27.7963C74.3972 28.12 75.1028 28.2818 75.8926 28.2818C76.514 28.2818 77.0901 28.1718 77.6209 27.9517C78.1647 27.7316 78.6308 27.395 79.0192 26.9419L79.796 27.8352C79.3428 28.3789 78.7732 28.7932 78.087 29.0781C77.4138 29.3629 76.6694 29.5053 75.8537 29.5053ZM87.4769 29.5053C86.467 29.5053 85.5608 29.2852 84.7581 28.845C83.9683 28.3919 83.3469 27.7769 82.8938 27.0001C82.4406 26.2104 82.2141 25.3106 82.2141 24.3008C82.2141 23.278 82.4406 22.3782 82.8938 21.6014C83.3469 20.8246 83.9683 20.2161 84.7581 19.7759C85.5608 19.3357 86.467 19.1156 87.4769 19.1156C88.3443 19.1156 89.1276 19.2839 89.8267 19.6205C90.5258 19.9572 91.076 20.4621 91.4774 21.1353L90.4481 21.8344C90.0986 21.3166 89.6648 20.9346 89.147 20.6886C88.6291 20.4427 88.0659 20.3197 87.4574 20.3197C86.7324 20.3197 86.0786 20.488 85.496 20.8246C84.9134 21.1482 84.4538 21.6079 84.1172 22.2034C83.7806 22.7989 83.6123 23.4981 83.6123 24.3008C83.6123 25.1034 83.7806 25.8026 84.1172 26.3981C84.4538 26.9937 84.9134 27.4597 85.496 27.7963C86.0786 28.12 86.7324 28.2818 87.4574 28.2818C88.0659 28.2818 88.6291 28.1589 89.147 27.9129C89.6648 27.6669 90.0986 27.2914 90.4481 26.7865L91.4774 27.4856C91.076 28.1459 90.5258 28.6508 89.8267 29.0004C89.1276 29.337 88.3443 29.5053 87.4769 29.5053ZM97.5235 29.5053C96.5655 29.5053 95.8275 29.2464 95.3096 28.7285C94.7918 28.2106 94.5328 27.4792 94.5328 26.5341V16.96H95.9116V26.4564C95.9116 27.0519 96.0605 27.5115 96.3583 27.8352C96.669 28.1589 97.1092 28.3207 97.6789 28.3207C98.2874 28.3207 98.7923 28.1459 99.1936 27.7963L99.6791 28.7868C99.4072 29.0328 99.0771 29.214 98.6887 29.3305C98.3132 29.447 97.9248 29.5053 97.5235 29.5053ZM92.7074 20.3585V19.2127H99.0188V20.3585H92.7074ZM102.514 29.4082V15.6056H108.134C109.606 15.6056 110.895 15.9014 111.999 16.4929C113.116 17.0713 113.984 17.8798 114.602 18.9182C115.219 19.9567 115.528 21.1529 115.528 22.5069C115.528 23.8609 115.219 25.0571 114.602 26.0956C113.984 27.1341 113.116 27.9491 111.999 28.5406C110.895 29.119 109.606 29.4082 108.134 29.4082H102.514ZM103.974 28.1463H108.055C109.278 28.1463 110.336 27.9096 111.23 27.4364C112.137 26.95 112.84 26.2862 113.34 25.4449C113.839 24.5904 114.089 23.6111 114.089 22.5069C114.089 21.3896 113.839 20.4102 113.34 19.5689C112.84 18.7276 112.137 18.0704 111.23 17.5971C110.336 17.1108 109.278 16.8676 108.055 16.8676H103.974V28.1463ZM122.906 29.5068C121.828 29.5068 120.882 29.2833 120.067 28.8364C119.252 28.3763 118.614 27.7519 118.154 26.9632C117.694 26.1613 117.464 25.2477 117.464 24.2224C117.464 23.197 117.681 22.29 118.115 21.5013C118.562 20.7126 119.166 20.0947 119.929 19.6478C120.704 19.1877 121.572 18.9577 122.532 18.9577C123.504 18.9577 124.365 19.1811 125.115 19.6281C125.877 20.0619 126.475 20.6797 126.909 21.4816C127.343 22.2703 127.56 23.1839 127.56 24.2224C127.56 24.2881 127.553 24.3604 127.54 24.4393C127.54 24.505 127.54 24.5773 127.54 24.6562H118.529V23.6111H126.791L126.239 24.0252C126.239 23.2759 126.074 22.6121 125.746 22.0337C125.43 21.4421 124.996 20.9821 124.444 20.6534C123.892 20.3248 123.255 20.1605 122.532 20.1605C121.822 20.1605 121.184 20.3248 120.619 20.6534C120.054 20.9821 119.613 21.4421 119.298 22.0337C118.982 22.6252 118.825 23.3022 118.825 24.0646V24.2815C118.825 25.0702 118.995 25.767 119.337 26.3716C119.692 26.9632 120.179 27.4298 120.796 27.7716C121.427 28.1002 122.144 28.2646 122.946 28.2646C123.577 28.2646 124.162 28.1528 124.701 27.9294C125.253 27.7059 125.726 27.3641 126.12 26.904L126.909 27.811C126.449 28.3632 125.87 28.7838 125.174 29.073C124.49 29.3622 123.734 29.5068 122.906 29.5068ZM134.708 29.5068C133.682 29.5068 132.762 29.2833 131.947 28.8364C131.145 28.3763 130.514 27.7519 130.054 26.9632C129.594 26.1613 129.364 25.2477 129.364 24.2224C129.364 23.1839 129.594 22.2703 130.054 21.4816C130.514 20.6929 131.145 20.075 131.947 19.6281C132.762 19.1811 133.682 18.9577 134.708 18.9577C135.588 18.9577 136.384 19.1286 137.094 19.4703C137.803 19.8121 138.362 20.3248 138.77 21.0083L137.725 21.7182C137.37 21.1924 136.929 20.8046 136.403 20.5548C135.878 20.3051 135.306 20.1802 134.688 20.1802C133.952 20.1802 133.288 20.3511 132.696 20.6929C132.105 21.0215 131.638 21.4881 131.297 22.0928C130.955 22.6975 130.784 23.4074 130.784 24.2224C130.784 25.0374 130.955 25.7472 131.297 26.3519C131.638 26.9566 132.105 27.4298 132.696 27.7716C133.288 28.1002 133.952 28.2646 134.688 28.2646C135.306 28.2646 135.878 28.1397 136.403 27.8899C136.929 27.6402 137.37 27.2589 137.725 26.7463L138.77 27.4561C138.362 28.1265 137.803 28.6392 137.094 28.9941C136.384 29.3359 135.588 29.5068 134.708 29.5068ZM145.566 29.5068C144.567 29.5068 143.667 29.2833 142.865 28.8364C142.076 28.3763 141.452 27.7519 140.992 26.9632C140.531 26.1613 140.301 25.2477 140.301 24.2224C140.301 23.1839 140.531 22.2703 140.992 21.4816C141.452 20.6929 142.076 20.075 142.865 19.6281C143.654 19.1811 144.554 18.9577 145.566 18.9577C146.591 18.9577 147.499 19.1811 148.287 19.6281C149.089 20.075 149.713 20.6929 150.16 21.4816C150.621 22.2703 150.851 23.1839 150.851 24.2224C150.851 25.2477 150.621 26.1613 150.16 26.9632C149.713 27.7519 149.089 28.3763 148.287 28.8364C147.485 29.2833 146.578 29.5068 145.566 29.5068ZM145.566 28.2646C146.315 28.2646 146.979 28.1002 147.558 27.7716C148.136 27.4298 148.59 26.9566 148.918 26.3519C149.26 25.7341 149.431 25.0242 149.431 24.2224C149.431 23.4074 149.26 22.6975 148.918 22.0928C148.59 21.4881 148.136 21.0215 147.558 20.6929C146.979 20.3511 146.322 20.1802 145.586 20.1802C144.85 20.1802 144.192 20.3511 143.614 20.6929C143.036 21.0215 142.576 21.4881 142.234 22.0928C141.892 22.6975 141.721 23.4074 141.721 24.2224C141.721 25.0242 141.892 25.7341 142.234 26.3519C142.576 26.9566 143.036 27.4298 143.614 27.7716C144.192 28.1002 144.843 28.2646 145.566 28.2646ZM153.709 29.4082V19.0563H155.05V21.8759L154.912 21.383C155.201 20.5943 155.687 19.9962 156.371 19.5887C157.054 19.168 157.902 18.9577 158.914 18.9577V20.3182C158.862 20.3182 158.809 20.3182 158.757 20.3182C158.704 20.3051 158.651 20.2985 158.599 20.2985C157.508 20.2985 156.653 20.6337 156.035 21.3041C155.418 21.9614 155.109 22.9013 155.109 24.1238V29.4082H153.709Z" fill="black"/>
</svg>
