<svg width="110" height="36" viewBox="0 0 110 36" fill="none" xmlns="http://www.w3.org/2000/svg">
<path d="M10.6094 19.8574H21.219V9.24784L10.6094 9.24784L10.6094 19.8574Z" fill="black"/>
<path d="M4.673e-05 30.4678H10.6096L10.6096 19.8582H4.673e-05L4.673e-05 30.4678Z" fill="black"/>
<path d="M29.2761 29L32.2315 8.09886H47.3437L46.064 12.9738H37.8071L37.2892 16.5081H44.9367L44.2969 21.1697H36.6494L35.522 29H29.2761ZM48.0161 29L50.1793 13.4308H56.1816L53.9879 29H48.0161ZM50.4536 11.4199L51.0629 7.06294H57.0651L56.4558 11.4199H50.4536ZM57.0011 29L59.1948 13.4308H63.7346L64.0088 15.6854C64.1713 15.462 64.4557 15.1472 64.8619 14.7409C65.2884 14.3347 65.8775 13.9691 66.629 13.6441C67.3806 13.2988 68.3454 13.1261 69.5235 13.1261C70.986 13.1261 72.0828 13.5019 72.8141 14.2534C73.5453 15.005 73.9109 15.9393 73.9109 17.0565C73.9109 17.2596 73.8906 17.544 73.85 17.9096C73.8094 18.2549 73.7484 18.7221 73.6672 19.3111C73.6062 19.9002 73.5047 20.6314 73.3625 21.5048C73.2406 22.3783 73.0883 23.4345 72.9055 24.6735C72.743 25.9126 72.5399 27.3547 72.2961 29H66.2634C66.5072 27.3141 66.7103 25.9024 66.8728 24.7649C67.0353 23.6071 67.1673 22.6728 67.2689 21.9619C67.3704 21.2306 67.4415 20.6619 67.4822 20.2556C67.5431 19.8291 67.5837 19.5143 67.604 19.3111C67.6243 19.0877 67.6345 18.9049 67.6345 18.7627C67.6345 18.3565 67.5126 18.0315 67.2689 17.7877C67.0454 17.544 66.7103 17.4221 66.2634 17.4221C65.9181 17.4221 65.6134 17.5034 65.3494 17.6659C65.0853 17.8284 64.8721 18.0518 64.7096 18.3362C64.5674 18.6002 64.4658 18.9049 64.4049 19.2502L63.0338 29H57.0011ZM80.5432 29.3047C78.9386 29.3047 77.6894 28.7969 76.7956 27.7813C75.9019 26.7657 75.455 25.2118 75.455 23.1197C75.455 21.8806 75.5871 20.672 75.8511 19.4939C76.1355 18.2955 76.5621 17.219 77.1308 16.2643C77.7198 15.3097 78.4612 14.5479 79.355 13.9792C80.269 13.4105 81.3659 13.1261 82.6455 13.1261C83.7221 13.1261 84.5549 13.3191 85.1439 13.705C85.733 14.0706 86.1494 14.5175 86.3931 15.0456L87.5204 7.06294H93.5531C93.2484 9.11446 92.9742 10.9324 92.7305 12.5167C92.4867 14.1011 92.2735 15.4925 92.0906 16.6909C91.9281 17.8893 91.7758 18.915 91.6336 19.7682C91.5118 20.6213 91.4102 21.3423 91.3289 21.9314C91.2477 22.5204 91.1868 23.0079 91.1461 23.3939C91.1055 23.7595 91.075 24.054 91.0547 24.2774C91.0344 24.5009 91.0243 24.6837 91.0243 24.8259C91.0243 25.0493 91.0852 25.2423 91.2071 25.4048C91.3289 25.5673 91.5321 25.6485 91.8164 25.6485C92.0196 25.6485 92.2125 25.6079 92.3953 25.5266C92.5984 25.4454 92.7813 25.354 92.9438 25.2524L92.4563 28.6039C92.0297 28.8273 91.5219 29 90.9329 29.1219C90.3641 29.2437 89.836 29.3047 89.3485 29.3047C88.7391 29.3047 88.1501 29.2437 87.5814 29.1219C87.0126 29.0203 86.515 28.807 86.0884 28.482C85.6619 28.1367 85.3673 27.6188 85.2048 26.9282C84.6767 27.5985 84.0369 28.1672 83.2854 28.6344C82.5338 29.0812 81.6198 29.3047 80.5432 29.3047ZM83.0416 25.618C83.4885 25.618 83.8541 25.5266 84.1385 25.3438C84.4431 25.1407 84.6869 24.8766 84.8697 24.5517C85.0525 24.2267 85.1744 23.8712 85.2353 23.4853C85.4587 21.8197 85.6212 20.6416 85.7228 19.951C85.8244 19.24 85.8751 18.8236 85.8751 18.7018C85.8751 18.1127 85.7025 17.676 85.3572 17.3916C85.0119 17.087 84.6056 16.9346 84.1385 16.9346C83.7728 16.9346 83.4377 17.0159 83.133 17.1784C82.8283 17.3409 82.5744 17.5846 82.3713 17.9096C82.1885 18.2143 82.0666 18.5799 82.0057 19.0065C81.8026 20.3674 81.6502 21.4642 81.5487 22.297C81.4674 23.1298 81.4268 23.6579 81.4268 23.8814C81.4268 24.4095 81.5791 24.836 81.8838 25.161C82.1885 25.4657 82.5744 25.618 83.0416 25.618ZM94.64 29L96.8337 13.4308H101.343L101.678 15.6854C101.739 15.5636 101.891 15.3706 102.135 15.1065C102.379 14.8222 102.694 14.5276 103.08 14.223C103.466 13.9183 103.923 13.6644 104.451 13.4613C104.979 13.2378 105.548 13.1261 106.157 13.1261C107.376 13.1261 108.3 13.4308 108.93 14.0401C109.559 14.6495 109.874 15.4721 109.874 16.5081C109.874 17.0768 109.823 17.6455 109.722 18.2143C109.62 18.7627 109.498 19.2705 109.356 19.7377H104.42C104.461 19.5549 104.481 19.3822 104.481 19.2197C104.501 19.0369 104.512 18.8846 104.512 18.7627C104.512 18.4377 104.461 18.1838 104.359 18.001C104.278 17.8182 104.156 17.6862 103.994 17.6049C103.831 17.5237 103.648 17.483 103.445 17.483C103.242 17.483 103.049 17.5237 102.866 17.6049C102.684 17.6862 102.531 17.7979 102.409 17.9401C102.287 18.0619 102.186 18.2143 102.105 18.3971C102.023 18.5799 101.962 18.783 101.922 19.0065L100.52 29H94.64Z" fill="black"/>
</svg>
