<svg width="177" height="24" viewBox="0 0 177 24" fill="none" xmlns="http://www.w3.org/2000/svg">
<path d="M16.2072 11.9222C16.2072 14.6817 13.962 16.9269 11.2024 16.9269C8.44293 16.9269 6.19771 14.6819 6.19771 11.9222C6.19771 9.16266 8.44293 6.91744 11.2024 6.91744V0.719727C5.02534 0.719727 0 5.74508 0 11.9222C0 18.0993 5.02534 23.1246 11.2024 23.1246C17.3795 23.1246 22.4049 18.0993 22.4049 11.9222H16.2072Z" fill="black"/>
<path d="M21.5715 0.639624C15.3957 0.525874 10.2788 5.45859 10.1655 11.6344L16.3622 11.7482C16.4123 9.01996 18.6474 6.8353 21.3647 6.8353C21.3955 6.8353 21.4268 6.83556 21.4578 6.83606C24.2168 6.8867 26.4205 9.17264 26.3699 11.9319C26.3193 14.6909 24.0338 16.8957 21.2743 16.844L21.1606 23.0407C21.2303 23.042 21.2998 23.0427 21.3692 23.0425C27.4512 23.0425 32.4546 18.152 32.5666 12.0457C32.6798 5.86983 27.7474 0.753119 21.5715 0.639624Z" fill="black"/>
<path d="M50.6607 13.9818C50.8016 13.9818 50.92 14.0325 51.0158 14.134L52.0218 15.2077C51.5259 15.8389 50.9087 16.318 50.1703 16.6449C49.4376 16.9718 48.564 17.1353 47.5495 17.1353C46.6308 17.1353 45.8051 16.9803 45.0724 16.6703C44.3396 16.3546 43.7168 15.9178 43.2039 15.3599C42.691 14.8019 42.2965 14.1396 42.0203 13.3731C41.7441 12.6065 41.6061 11.7696 41.6061 10.8621C41.6061 10.2534 41.6709 9.67569 41.8005 9.12898C41.9358 8.57662 42.1302 8.06936 42.3839 7.60719C42.6375 7.14502 42.9418 6.72793 43.2969 6.35594C43.6577 5.98395 44.0635 5.66832 44.5144 5.40905C44.9653 5.14415 45.4556 4.94406 45.9854 4.80879C46.5209 4.66789 47.0901 4.59743 47.6932 4.59743C48.1441 4.59743 48.5696 4.63689 48.9698 4.71579C49.3756 4.7947 49.7533 4.90461 50.1027 5.04551C50.4522 5.18642 50.7734 5.35833 51.0665 5.56123C51.3652 5.7585 51.6329 5.9755 51.8697 6.21222L51.0158 7.37892C50.965 7.45219 50.9002 7.51701 50.8213 7.57337C50.7424 7.62974 50.6353 7.65792 50.5001 7.65792C50.3648 7.65792 50.2267 7.61001 50.0858 7.51419C49.9505 7.41838 49.7814 7.31129 49.5785 7.19293C49.3813 7.07456 49.1305 6.96747 48.8261 6.87166C48.5274 6.77584 48.1469 6.72793 47.6848 6.72793C47.1719 6.72793 46.7012 6.82093 46.2729 7.00693C45.8445 7.19293 45.4753 7.46347 45.1653 7.81855C44.861 8.168 44.6243 8.59917 44.4552 9.11207C44.2861 9.62497 44.2015 10.2083 44.2015 10.8621C44.2015 11.5216 44.2917 12.1106 44.4721 12.6291C44.6581 13.142 44.9089 13.576 45.2245 13.9311C45.5458 14.2861 45.9178 14.5567 46.3405 14.7427C46.7689 14.923 47.2254 15.0132 47.7101 15.0132C47.9976 15.0132 48.2568 14.9991 48.4879 14.971C48.7246 14.9428 48.9416 14.8949 49.1389 14.8272C49.3418 14.7596 49.5306 14.6722 49.7053 14.5651C49.8857 14.4581 50.0661 14.3228 50.2464 14.1593C50.3084 14.1086 50.3732 14.0663 50.4409 14.0325C50.5085 13.9987 50.5818 13.9818 50.6607 13.9818ZM65.0425 10.8621C65.0425 11.7583 64.8903 12.5896 64.586 13.3562C64.2873 14.1227 63.8617 14.785 63.3094 15.3429C62.7626 15.9009 62.1032 16.3406 61.331 16.6618C60.5589 16.9775 59.7022 17.1353 58.7609 17.1353C57.8197 17.1353 56.9629 16.9775 56.1908 16.6618C55.4186 16.3406 54.7564 15.9009 54.204 15.3429C53.6516 14.785 53.2233 14.1227 52.9189 13.3562C52.6202 12.5896 52.4709 11.7583 52.4709 10.8621C52.4709 9.96596 52.6202 9.13743 52.9189 8.37654C53.2233 7.61001 53.6516 6.94775 54.204 6.38976C54.7564 5.83177 55.4186 5.39496 56.1908 5.07933C56.9629 4.75807 57.8197 4.59743 58.7609 4.59743C59.7022 4.59743 60.5589 4.75807 61.331 5.07933C62.1032 5.39496 62.7626 5.83459 63.3094 6.39821C63.8617 6.9562 64.2873 7.61846 64.586 8.38499C64.8903 9.14589 65.0425 9.9716 65.0425 10.8621ZM62.447 10.8621C62.447 10.2196 62.3625 9.64469 62.1934 9.13743C62.0243 8.62453 61.7791 8.19054 61.4579 7.83546C61.1422 7.47474 60.7561 7.20138 60.2996 7.01538C59.8487 6.82375 59.3358 6.72793 58.7609 6.72793C58.186 6.72793 57.6703 6.82375 57.2138 7.01538C56.7572 7.20138 56.3683 7.47474 56.0471 7.83546C55.7314 8.19054 55.4891 8.62453 55.32 9.13743C55.1509 9.64469 55.0663 10.2196 55.0663 10.8621C55.0663 11.5103 55.1509 12.0908 55.32 12.6037C55.4891 13.111 55.7314 13.5422 56.0471 13.8972C56.3683 14.2523 56.7572 14.5257 57.2138 14.7173C57.6703 14.9033 58.186 14.9963 58.7609 14.9963C59.3358 14.9963 59.8487 14.9033 60.2996 14.7173C60.7561 14.5257 61.1422 14.2523 61.4579 13.8972C61.7791 13.5422 62.0243 13.111 62.1934 12.6037C62.3625 12.0908 62.447 11.5103 62.447 10.8621ZM73.5399 7.08302C73.461 7.21265 73.3793 7.30847 73.2948 7.37047C73.2159 7.42683 73.1116 7.45501 72.982 7.45501C72.858 7.45501 72.7227 7.41274 72.5761 7.3282C72.4352 7.23802 72.269 7.1422 72.0773 7.04075C71.8857 6.93929 71.6659 6.8463 71.4179 6.76175C71.1699 6.67157 70.8796 6.62648 70.5471 6.62648C69.9609 6.62648 69.5213 6.75893 69.2282 7.02384C68.9351 7.28311 68.7886 7.6241 68.7886 8.04682C68.7886 8.31736 68.8675 8.54281 69.0253 8.72317C69.1888 8.89789 69.4001 9.05007 69.6594 9.1797C69.9243 9.30934 70.223 9.42488 70.5556 9.52633C70.8881 9.62779 71.2291 9.74051 71.5785 9.86451C71.928 9.98287 72.269 10.1238 72.6015 10.2872C72.934 10.4507 73.23 10.6564 73.4892 10.9044C73.7541 11.1524 73.9655 11.4567 74.1233 11.8175C74.2867 12.1726 74.3685 12.6065 74.3685 13.1194C74.3685 13.6774 74.2698 14.2016 74.0726 14.692C73.8809 15.1767 73.6019 15.6022 73.2356 15.9686C72.8692 16.3293 72.4155 16.6139 71.8744 16.8225C71.339 17.031 70.7303 17.1353 70.0483 17.1353C69.6594 17.1353 69.2705 17.0958 68.8816 17.0169C68.4983 16.938 68.1263 16.8281 67.7656 16.6872C67.4105 16.5463 67.0752 16.3772 66.7595 16.1799C66.4439 15.9827 66.1677 15.7628 65.931 15.5205L66.675 14.32C66.737 14.2298 66.8187 14.1565 66.9202 14.1001C67.0216 14.0382 67.1287 14.0072 67.2414 14.0072C67.3936 14.0072 67.5542 14.0635 67.7233 14.1762C67.8924 14.289 68.0869 14.413 68.3067 14.5482C68.5265 14.6835 68.7801 14.8075 69.0676 14.9202C69.3607 15.0329 69.7101 15.0893 70.1159 15.0893C70.7077 15.0893 71.1643 14.954 71.4855 14.6835C71.8124 14.413 71.9759 14.01 71.9759 13.4745C71.9759 13.1645 71.8942 12.9137 71.7307 12.7221C71.5729 12.5305 71.3644 12.3698 71.1051 12.2402C70.8458 12.1106 70.5499 12.0006 70.2174 11.9105C69.8848 11.8147 69.5438 11.7104 69.1944 11.5977C68.845 11.4849 68.504 11.3497 68.1714 11.1918C67.8389 11.034 67.543 10.8255 67.2837 10.5662C67.0244 10.307 66.8131 9.98569 66.6496 9.60242C66.4918 9.21916 66.4129 8.74289 66.4129 8.17363C66.4129 7.7171 66.5031 7.27465 66.6834 6.8463C66.8638 6.41794 67.1287 6.03749 67.4782 5.70496C67.8276 5.37242 68.256 5.10469 68.7632 4.90179C69.2761 4.69888 69.8623 4.59743 70.5217 4.59743C71.2601 4.59743 71.9421 4.71297 72.5677 4.94406C73.199 5.16951 73.7316 5.48514 74.1656 5.89095L73.5399 7.08302ZM89.7348 4.7327V17H87.4944V9.46715C87.4944 9.30934 87.4972 9.14025 87.5029 8.95989C87.5141 8.77953 87.5311 8.59635 87.5536 8.41036L84.045 15.0639C83.8534 15.4303 83.5575 15.6135 83.1573 15.6135H82.8022C82.605 15.6135 82.4302 15.5684 82.2781 15.4782C82.1259 15.3824 82.0047 15.2443 81.9145 15.0639L78.3891 8.38499C78.406 8.58226 78.4201 8.77389 78.4313 8.95989C78.4426 9.14025 78.4482 9.30934 78.4482 9.46715V17H76.2078V4.7327H78.1354C78.2425 4.7327 78.3383 4.73552 78.4229 4.74116C78.5074 4.74679 78.5807 4.7637 78.6427 4.79188C78.7103 4.81443 78.7695 4.85388 78.8202 4.91024C78.8766 4.96097 78.9301 5.03424 78.9809 5.13006L82.4133 11.6737C82.5204 11.871 82.6191 12.0739 82.7092 12.2825C82.8051 12.491 82.8952 12.7052 82.9798 12.925C83.0643 12.6995 83.1517 12.4797 83.2419 12.2656C83.3377 12.0514 83.4391 11.8456 83.5462 11.6484L86.9533 5.13006C87.0041 5.03424 87.0576 4.96097 87.114 4.91024C87.1703 4.85388 87.2295 4.81443 87.2915 4.79188C87.3591 4.7637 87.4324 4.74679 87.5113 4.74116C87.5959 4.73552 87.6945 4.7327 87.8072 4.7327H89.7348ZM94.8442 17H92.291V4.7327H94.8442V17ZM105.763 13.9818C105.904 13.9818 106.022 14.0325 106.118 14.134L107.124 15.2077C106.628 15.8389 106.011 16.318 105.272 16.6449C104.54 16.9718 103.666 17.1353 102.652 17.1353C101.733 17.1353 100.907 16.9803 100.174 16.6703C99.4417 16.3546 98.8189 15.9178 98.306 15.3599C97.7931 14.8019 97.3985 14.1396 97.1224 13.3731C96.8462 12.6065 96.7081 11.7696 96.7081 10.8621C96.7081 10.2534 96.7729 9.67569 96.9026 9.12898C97.0378 8.57662 97.2323 8.06936 97.4859 7.60719C97.7395 7.14502 98.0439 6.72793 98.399 6.35594C98.7597 5.98395 99.1655 5.66832 99.6164 5.40905C100.067 5.14415 100.558 4.94406 101.087 4.80879C101.623 4.66789 102.192 4.59743 102.795 4.59743C103.246 4.59743 103.672 4.63689 104.072 4.71579C104.478 4.7947 104.855 4.90461 105.205 5.04551C105.554 5.18642 105.875 5.35833 106.169 5.56123C106.467 5.7585 106.735 5.9755 106.972 6.21222L106.118 7.37892C106.067 7.45219 106.002 7.51701 105.923 7.57337C105.844 7.62974 105.737 7.65792 105.602 7.65792C105.467 7.65792 105.329 7.61001 105.188 7.51419C105.053 7.41838 104.883 7.31129 104.681 7.19293C104.483 7.07456 104.232 6.96747 103.928 6.87166C103.629 6.77584 103.249 6.72793 102.787 6.72793C102.274 6.72793 101.803 6.82093 101.375 7.00693C100.947 7.19293 100.577 7.46347 100.267 7.81855C99.963 8.168 99.7263 8.59917 99.5572 9.11207C99.3881 9.62497 99.3036 10.2083 99.3036 10.8621C99.3036 11.5216 99.3938 12.1106 99.5741 12.6291C99.7601 13.142 100.011 13.576 100.327 13.9311C100.648 14.2861 101.02 14.5567 101.443 14.7427C101.871 14.923 102.327 15.0132 102.812 15.0132C103.1 15.0132 103.359 14.9991 103.59 14.971C103.827 14.9428 104.044 14.8949 104.241 14.8272C104.444 14.7596 104.633 14.6722 104.807 14.5651C104.988 14.4581 105.168 14.3228 105.348 14.1593C105.41 14.1086 105.475 14.0663 105.543 14.0325C105.611 13.9987 105.684 13.9818 105.763 13.9818ZM119.213 7.08302C119.134 7.21265 119.053 7.30847 118.968 7.37047C118.889 7.42683 118.785 7.45501 118.655 7.45501C118.531 7.45501 118.396 7.41274 118.25 7.3282C118.109 7.23802 117.942 7.1422 117.751 7.04075C117.559 6.93929 117.339 6.8463 117.091 6.76175C116.843 6.67157 116.553 6.62648 116.221 6.62648C115.634 6.62648 115.195 6.75893 114.902 7.02384C114.609 7.28311 114.462 7.6241 114.462 8.04682C114.462 8.31736 114.541 8.54281 114.699 8.72317C114.862 8.89789 115.074 9.05007 115.333 9.1797C115.598 9.30934 115.896 9.42488 116.229 9.52633C116.562 9.62779 116.903 9.74051 117.252 9.86451C117.601 9.98287 117.942 10.1238 118.275 10.2872C118.607 10.4507 118.903 10.6564 119.163 10.9044C119.428 11.1524 119.639 11.4567 119.797 11.8175C119.96 12.1726 120.042 12.6065 120.042 13.1194C120.042 13.6774 119.943 14.2016 119.746 14.692C119.554 15.1767 119.275 15.6022 118.909 15.9686C118.543 16.3293 118.089 16.6139 117.548 16.8225C117.012 17.031 116.404 17.1353 115.722 17.1353C115.333 17.1353 114.944 17.0958 114.555 17.0169C114.172 16.938 113.8 16.8281 113.439 16.6872C113.084 16.5463 112.749 16.3772 112.433 16.1799C112.117 15.9827 111.841 15.7628 111.604 15.5205L112.348 14.32C112.41 14.2298 112.492 14.1565 112.594 14.1001C112.695 14.0382 112.802 14.0072 112.915 14.0072C113.067 14.0072 113.228 14.0635 113.397 14.1762C113.566 14.289 113.76 14.413 113.98 14.5482C114.2 14.6835 114.454 14.8075 114.741 14.9202C115.034 15.0329 115.384 15.0893 115.789 15.0893C116.381 15.0893 116.838 14.954 117.159 14.6835C117.486 14.413 117.649 14.01 117.649 13.4745C117.649 13.1645 117.568 12.9137 117.404 12.7221C117.246 12.5305 117.038 12.3698 116.779 12.2402C116.519 12.1106 116.223 12.0006 115.891 11.9105C115.558 11.8147 115.217 11.7104 114.868 11.5977C114.518 11.4849 114.177 11.3497 113.845 11.1918C113.512 11.034 113.216 10.8255 112.957 10.5662C112.698 10.307 112.487 9.98569 112.323 9.60242C112.165 9.21916 112.086 8.74289 112.086 8.17363C112.086 7.7171 112.177 7.27465 112.357 6.8463C112.537 6.41794 112.802 6.03749 113.152 5.70496C113.501 5.37242 113.929 5.10469 114.437 4.90179C114.95 4.69888 115.536 4.59743 116.195 4.59743C116.934 4.59743 117.616 4.71297 118.241 4.94406C118.872 5.16951 119.405 5.48514 119.839 5.89095L119.213 7.08302ZM126.024 10.8368C126.819 10.8368 127.399 10.6451 127.766 10.2619C128.138 9.8786 128.323 9.35443 128.323 8.68935C128.323 8.38499 128.276 8.10882 128.18 7.86082C128.09 7.60719 127.949 7.39301 127.757 7.21829C127.571 7.03793 127.334 6.89984 127.047 6.80402C126.759 6.70821 126.418 6.6603 126.024 6.6603H124.418V10.8368H126.024ZM126.024 4.7327C126.864 4.7327 127.588 4.83134 128.197 5.02861C128.811 5.22587 129.315 5.50205 129.71 5.85713C130.105 6.20658 130.395 6.62366 130.581 7.10838C130.772 7.5931 130.868 8.12009 130.868 8.68935C130.868 9.29243 130.77 9.84478 130.572 10.3464C130.375 10.848 130.076 11.2792 129.676 11.6399C129.276 12.0006 128.772 12.2825 128.163 12.4854C127.554 12.6826 126.841 12.7813 126.024 12.7813H124.418V17H121.881V4.7327H126.024ZM144.335 10.8621C144.335 11.7583 144.183 12.5896 143.879 13.3562C143.58 14.1227 143.155 14.785 142.602 15.3429C142.055 15.9009 141.396 16.3406 140.624 16.6618C139.852 16.9775 138.995 17.1353 138.054 17.1353C137.112 17.1353 136.256 16.9775 135.484 16.6618C134.711 16.3406 134.049 15.9009 133.497 15.3429C132.944 14.785 132.516 14.1227 132.212 13.3562C131.913 12.5896 131.764 11.7583 131.764 10.8621C131.764 9.96596 131.913 9.13743 132.212 8.37654C132.516 7.61001 132.944 6.94775 133.497 6.38976C134.049 5.83177 134.711 5.39496 135.484 5.07933C136.256 4.75807 137.112 4.59743 138.054 4.59743C138.995 4.59743 139.852 4.75807 140.624 5.07933C141.396 5.39496 142.055 5.83459 142.602 6.39821C143.155 6.9562 143.58 7.61846 143.879 8.38499C144.183 9.14589 144.335 9.9716 144.335 10.8621ZM141.74 10.8621C141.74 10.2196 141.655 9.64469 141.486 9.13743C141.317 8.62453 141.072 8.19054 140.751 7.83546C140.435 7.47474 140.049 7.20138 139.592 7.01538C139.141 6.82375 138.629 6.72793 138.054 6.72793C137.479 6.72793 136.963 6.82375 136.507 7.01538C136.05 7.20138 135.661 7.47474 135.34 7.83546C135.024 8.19054 134.782 8.62453 134.613 9.13743C134.444 9.64469 134.359 10.2196 134.359 10.8621C134.359 11.5103 134.444 12.0908 134.613 12.6037C134.782 13.111 135.024 13.5422 135.34 13.8972C135.661 14.2523 136.05 14.5257 136.507 14.7173C136.963 14.9033 137.479 14.9963 138.054 14.9963C138.629 14.9963 139.141 14.9033 139.592 14.7173C140.049 14.5257 140.435 14.2523 140.751 13.8972C141.072 13.5422 141.317 13.111 141.486 12.6037C141.655 12.0908 141.74 11.5103 141.74 10.8621ZM150.026 10.5409C150.437 10.5409 150.792 10.4901 151.091 10.3887C151.39 10.2816 151.635 10.1379 151.827 9.95751C152.018 9.77151 152.159 9.55451 152.249 9.30652C152.34 9.05852 152.385 8.78798 152.385 8.4949C152.385 7.91437 152.19 7.46347 151.801 7.1422C151.418 6.82093 150.832 6.6603 150.043 6.6603H148.724V10.5409H150.026ZM155.969 17H153.678C153.25 17 152.94 16.8365 152.748 16.5096L150.415 12.7474C150.319 12.6009 150.212 12.4938 150.094 12.4262C149.981 12.3585 149.812 12.3247 149.586 12.3247H148.724V17H146.188V4.7327H150.043C150.899 4.7327 151.632 4.82288 152.241 5.00324C152.85 5.17797 153.348 5.42314 153.737 5.73877C154.126 6.0544 154.411 6.43203 154.591 6.87166C154.772 7.30565 154.862 7.78473 154.862 8.3089C154.862 8.71471 154.803 9.1008 154.684 9.46715C154.572 9.82787 154.405 10.1576 154.185 10.4563C153.966 10.755 153.695 11.0199 153.374 11.251C153.053 11.4821 152.686 11.6681 152.275 11.809C152.438 11.8992 152.59 12.0091 152.731 12.1387C152.872 12.2627 152.999 12.4121 153.112 12.5868L155.969 17ZM165.57 6.77866H161.986V17H159.441V6.77866H155.856V4.7327H165.57V6.77866ZM173.721 7.08302C173.642 7.21265 173.56 7.30847 173.476 7.37047C173.397 7.42683 173.293 7.45501 173.163 7.45501C173.039 7.45501 172.904 7.41274 172.757 7.3282C172.616 7.23802 172.45 7.1422 172.258 7.04075C172.067 6.93929 171.847 6.8463 171.599 6.76175C171.351 6.67157 171.061 6.62648 170.728 6.62648C170.142 6.62648 169.702 6.75893 169.409 7.02384C169.116 7.28311 168.97 7.6241 168.97 8.04682C168.97 8.31736 169.049 8.54281 169.206 8.72317C169.37 8.89789 169.581 9.05007 169.84 9.1797C170.105 9.30934 170.404 9.42488 170.737 9.52633C171.069 9.62779 171.41 9.74051 171.76 9.86451C172.109 9.98287 172.45 10.1238 172.783 10.2872C173.115 10.4507 173.411 10.6564 173.67 10.9044C173.935 11.1524 174.147 11.4567 174.304 11.8175C174.468 12.1726 174.55 12.6065 174.55 13.1194C174.55 13.6774 174.451 14.2016 174.254 14.692C174.062 15.1767 173.783 15.6022 173.417 15.9686C173.05 16.3293 172.597 16.6139 172.055 16.8225C171.52 17.031 170.911 17.1353 170.229 17.1353C169.84 17.1353 169.452 17.0958 169.063 17.0169C168.679 16.938 168.307 16.8281 167.947 16.6872C167.592 16.5463 167.256 16.3772 166.941 16.1799C166.625 15.9827 166.349 15.7628 166.112 15.5205L166.856 14.32C166.918 14.2298 167 14.1565 167.101 14.1001C167.203 14.0382 167.31 14.0072 167.422 14.0072C167.575 14.0072 167.735 14.0635 167.904 14.1762C168.073 14.289 168.268 14.413 168.488 14.5482C168.708 14.6835 168.961 14.8075 169.249 14.9202C169.542 15.0329 169.891 15.0893 170.297 15.0893C170.889 15.0893 171.345 14.954 171.667 14.6835C171.993 14.413 172.157 14.01 172.157 13.4745C172.157 13.1645 172.075 12.9137 171.912 12.7221C171.754 12.5305 171.545 12.3698 171.286 12.2402C171.027 12.1106 170.731 12.0006 170.398 11.9105C170.066 11.8147 169.725 11.7104 169.375 11.5977C169.026 11.4849 168.685 11.3497 168.352 11.1918C168.02 11.034 167.724 10.8255 167.465 10.5662C167.205 10.307 166.994 9.98569 166.831 9.60242C166.673 9.21916 166.594 8.74289 166.594 8.17363C166.594 7.7171 166.684 7.27465 166.864 6.8463C167.045 6.41794 167.31 6.03749 167.659 5.70496C168.009 5.37242 168.437 5.10469 168.944 4.90179C169.457 4.69888 170.043 4.59743 170.703 4.59743C171.441 4.59743 172.123 4.71297 172.749 4.94406C173.38 5.16951 173.913 5.48514 174.347 5.89095L173.721 7.08302Z" fill="black"/>
</svg>
