<svg width="77" height="89" viewBox="0 0 77 89" fill="none" xmlns="http://www.w3.org/2000/svg">
<path opacity="0.01" d="M0.0268555 22.2012L38.4523 0.0161133L76.8777 22.2012V66.571L38.4523 88.7566L0.0268555 66.571V22.2012Z" fill="#FEFEFE"/>
<path opacity="0.0198" d="M0.0534668 22.2024L38.4522 0.0327148L76.851 22.2024V66.5413L38.4522 88.711L0.0534668 66.5413V22.2024Z" fill="#FDFDFD"/>
<path opacity="0.0297" d="M0.0800781 22.2031L38.4522 0.0488281L76.8243 22.2031V66.5111L38.4522 88.6654L0.0800781 66.5111V22.2031Z" fill="#FCFCFC"/>
<path opacity="0.0396" d="M0.106689 22.2037L38.4522 0.0644531L76.7976 22.2037V66.4809L38.4522 88.6198L0.106689 66.4809V22.2037Z" fill="#FBFBFB"/>
<path opacity="0.0495" d="M0.133545 22.204L38.4524 0.0805664L76.7712 22.204V66.4507L38.4524 88.5741L0.133545 66.4507V22.204Z" fill="#FAFAFA"/>
<path opacity="0.0594" d="M0.159912 22.2051L38.4521 0.097168L76.7442 22.2051V66.4211L38.4521 88.529L0.159912 66.4211V22.2051Z" fill="#F9F9F9"/>
<path opacity="0.0693" d="M0.186768 22.2063L38.4523 0.113281L76.7178 22.2063V66.3913L38.4523 88.4839L0.186768 66.3913V22.2063Z" fill="#F8F8F8"/>
<path opacity="0.0792" d="M0.213379 22.2065L38.4522 0.129395L76.6911 22.2065V66.3612L38.4522 88.4383L0.213379 66.3612V22.2065Z" fill="#F7F7F7"/>
<path opacity="0.0891" d="M0.23999 22.2076L38.4522 0.145508L76.6644 22.2076V66.3315L38.4522 88.3931L0.23999 66.3315V22.2076Z" fill="#F6F6F6"/>
<path opacity="0.099" d="M0.266602 22.2088L38.4522 0.162109L76.6377 22.2088V66.3018L38.4522 88.348L0.266602 66.3018V22.2088Z" fill="#F5F5F5"/>
<path opacity="0.1089" d="M0.293213 22.209L38.4521 0.177734L76.611 22.209V66.2706L38.4521 88.3019L0.293213 66.2706V22.209Z" fill="#F4F4F4"/>
<path opacity="0.1188" d="M0.320068 22.2097L38.4523 0.194336L76.5845 22.2097V66.2409L38.4523 88.2568L0.320068 66.2409V22.2097Z" fill="#F3F3F3"/>
<path opacity="0.1287" d="M0.346436 22.2109L38.452 0.210449L76.5576 22.2109V66.2112L38.452 88.2116L0.346436 66.2112V22.2109Z" fill="#F2F2F2"/>
<path opacity="0.1386" d="M0.373291 22.212L38.4522 0.227051L76.5312 22.212V66.1815L38.4522 88.1665L0.373291 66.1815V22.212Z" fill="#F1F1F1"/>
<path opacity="0.1485" d="M0.399902 22.2127L38.4522 0.243164L76.5044 22.2127V66.1513L38.4522 88.1209L0.399902 66.1513V22.2127Z" fill="#F0F0F0"/>
<path opacity="0.1584" d="M0.426514 22.2134L38.4521 0.259277L76.4778 22.2134V66.1216L38.4521 88.0758L0.426514 66.1216V22.2134Z" fill="#EFEFEF"/>
<path opacity="0.1683" d="M0.453125 22.2146L38.4521 0.275879L76.4506 22.2146V66.0919L38.4521 88.0306L0.453125 66.0919V22.2146Z" fill="#EEEEEE"/>
<path opacity="0.1782" d="M0.479736 22.2152L38.452 0.291504L76.4239 22.2152V66.0617L38.452 87.985L0.479736 66.0617V22.2152Z" fill="#EDEDED"/>
<path opacity="0.1881" d="M0.506592 22.2164L38.4523 0.308105L76.3974 22.2164V66.0316L38.4523 87.9399L0.506592 66.0316V22.2164Z" fill="#ECECEC"/>
<path opacity="0.198" d="M0.532959 22.2161L38.452 0.32373L76.3705 22.2161V66.0009L38.452 87.8938L0.532959 66.0009V22.2161Z" fill="#EBEBEB"/>
<path opacity="0.2079" d="M0.559814 22.2173L38.4522 0.340332L76.3445 22.2173V65.9712L38.4522 87.8486L0.559814 65.9712V22.2173Z" fill="#EAEAEA"/>
<path opacity="0.2178" d="M0.586426 22.2184L38.4521 0.356445L76.3173 22.2184V65.9415L38.4521 87.8035L0.586426 65.9415V22.2184Z" fill="#E9E9E9"/>
<path opacity="0.2277" d="M0.613037 22.2191L38.4521 0.373047L76.2907 22.2191V65.9118L38.4521 87.7584L0.613037 65.9118V22.2191Z" fill="#E8E8E8"/>
<path opacity="0.2376" d="M0.639648 22.2198L38.452 0.38916L76.264 22.2198V65.8816L38.452 87.7128L0.639648 65.8816V22.2198Z" fill="#E7E7E7"/>
<path opacity="0.2475" d="M0.666504 22.221L38.4522 0.405273L76.2375 22.221V65.8519L38.4522 87.6676L0.666504 65.8519V22.221Z" fill="#E6E6E6"/>
<path opacity="0.2574" d="M0.693115 22.2212L38.4522 0.420898L76.2108 22.2212V65.8213L38.4522 87.6215L0.693115 65.8213V22.2212Z" fill="#E4E4E4"/>
<path opacity="0.2673" d="M0.719727 22.2218L38.4522 0.437012L76.1841 22.2218V65.7915L38.4522 87.5764L0.719727 65.7915V22.2218Z" fill="#E3E3E3"/>
<path opacity="0.2772" d="M0.746338 22.223L38.4521 0.453613L76.1574 22.223V65.7614L38.4521 87.5312L0.746338 65.7614V22.223Z" fill="#E2E2E2"/>
<path opacity="0.2871" d="M0.773193 22.2242L38.4523 0.470215L76.131 22.2242V65.7317L38.4523 87.4861L0.773193 65.7317V22.2242Z" fill="#E1E1E1"/>
<path opacity="0.297" d="M0.799561 22.2253L38.452 0.486328L76.104 22.2253V65.702L38.452 87.441L0.799561 65.702V22.2253Z" fill="#E0E0E0"/>
<path opacity="0.3069" d="M0.826416 22.2251L38.4522 0.501953L76.0776 22.2251V65.6713L38.4522 87.3949L0.826416 65.6713V22.2251Z" fill="#DFDFDF"/>
<path opacity="0.3168" d="M0.853027 22.2257L38.4522 0.518066L76.0509 22.2257V65.6411L38.4522 87.3493L0.853027 65.6411V22.2257Z" fill="#DEDEDE"/>
<path opacity="0.3267" d="M0.879639 22.2274L38.4521 0.534668L76.0242 22.2274V65.6119L38.4521 87.3046L0.879639 65.6119V22.2274Z" fill="#DDDDDD"/>
<path opacity="0.3366" d="M0.90625 22.2281L38.4521 0.550781L75.9975 22.2281V65.5817L38.4521 87.259L0.90625 65.5817V22.2281Z" fill="#DCDCDC"/>
<path opacity="0.3465" d="M0.933105 22.2288L38.4523 0.567383L75.971 22.2288V65.552L38.4523 87.2139L0.933105 65.552V22.2288Z" fill="#DBDBDB"/>
<path opacity="0.3564" d="M0.959717 22.2299L38.4523 0.583496L75.9443 22.2299V65.5223L38.4523 87.1687L0.959717 65.5223V22.2299Z" fill="#DADADA"/>
<path opacity="0.3663" d="M0.986816 22.2306L38.4522 0.599609L75.9177 22.2306V65.4917L38.4522 87.1227L0.986816 65.4917V22.2306Z" fill="#D9D9D9"/>
<path opacity="0.3762" d="M1.01343 22.2308L38.4522 0.615723L75.891 22.2308V65.4615L38.4522 87.0775L1.01343 65.4615V22.2308Z" fill="#D8D8D8"/>
<path opacity="0.3861" d="M1.04028 22.232L38.4524 0.631836L75.8645 22.232V65.4318L38.4524 87.0319L1.04028 65.4318V22.232Z" fill="#D7D7D7"/>
<path opacity="0.396" d="M1.06665 22.2327L38.4521 0.647949L75.8376 22.2327V65.4016L38.4521 86.9863L1.06665 65.4016V22.2327Z" fill="#D6D6D6"/>
<path opacity="0.4059" d="M1.09326 22.2338L38.4521 0.664551L75.8109 22.2338V65.3719L38.4521 86.9412L1.09326 65.3719V22.2338Z" fill="#D5D5D5"/>
<path opacity="0.4158" d="M1.12012 22.2345L38.4523 0.680664L75.7844 22.2345V65.3422L38.4523 86.896L1.12012 65.3422V22.2345Z" fill="#D4D4D4"/>
<path opacity="0.4257" d="M1.14673 22.2352L38.4522 0.696777L75.7577 22.2352V65.312L38.4522 86.8504L1.14673 65.312V22.2352Z" fill="#D3D3D3"/>
<path opacity="0.4356" d="M1.17334 22.2359L38.4522 0.712891L75.731 22.2359V65.2818L38.4522 86.8048L1.17334 65.2818V22.2359Z" fill="#D2D2D2"/>
<path opacity="0.4455" d="M1.19995 22.237L38.4521 0.729004L75.7043 22.237V65.2521L38.4521 86.7597L1.19995 65.2521V22.237Z" fill="#D1D1D1"/>
<path opacity="0.4554" d="M1.22705 22.2372L38.4526 0.745117L75.6781 22.2372V65.2219L38.4526 86.714L1.22705 65.2219V22.2372Z" fill="#D0D0D0"/>
<path opacity="0.4653" d="M1.25317 22.2384L38.4521 0.761719L75.6509 22.2384V65.1922L38.4521 86.6689L1.25317 65.1922V22.2384Z" fill="#CFCFCF"/>
<path opacity="0.4752" d="M1.28003 22.2391L38.4523 0.777344L75.6245 22.2391V65.1616L38.4523 86.6233L1.28003 65.1616V22.2391Z" fill="#CECECE"/>
<path opacity="0.4851" d="M1.30664 22.2402L38.4522 0.793945L75.5978 22.2402V65.1319L38.4522 86.5781L1.30664 65.1319V22.2402Z" fill="#CDCDCD"/>
<path opacity="0.4951" d="M1.33325 22.2409L38.4522 0.810547L75.5711 22.2409V65.1022L38.4522 86.533L1.33325 65.1022V22.2409Z" fill="#CCCCCC"/>
<path opacity="0.5049" d="M1.35986 22.2416L38.4521 0.826172L75.5444 22.2416V65.072L38.4521 86.4874L1.35986 65.072V22.2416Z" fill="#CBCBCB"/>
<path opacity="0.5149" d="M1.38672 22.2428L38.4523 0.842773L75.5179 22.2428V65.0423L38.4523 86.4423L1.38672 65.0423V22.2428Z" fill="#CACACA"/>
<path opacity="0.5248" d="M1.41333 22.2435L38.4523 0.859375L75.4912 22.2435V65.0126L38.4523 86.3972L1.41333 65.0126V22.2435Z" fill="#C9C9C9"/>
<path opacity="0.5347" d="M1.43994 22.2441L38.4522 0.875L75.4645 22.2441V64.9824L38.4522 86.3515L1.43994 64.9824V22.2441Z" fill="#C8C8C8"/>
<path opacity="0.5446" d="M1.46655 22.2448L38.4522 0.891113L75.4378 22.2448V64.9522L38.4522 86.3059L1.46655 64.9522V22.2448Z" fill="#C7C7C7"/>
<path opacity="0.5545" d="M1.49316 22.246L38.4522 0.907715L75.4111 22.246V64.9225L38.4522 86.2608L1.49316 64.9225V22.246Z" fill="#C6C6C6"/>
<path opacity="0.5644" d="M1.51978 22.2467L38.4521 0.923828L75.3845 22.2467V64.8923L38.4521 86.2156L1.51978 64.8923V22.2467Z" fill="#C5C5C5"/>
<path opacity="0.5743" d="M1.54639 22.2469L38.4521 0.939453L75.3578 22.2469V64.8617L38.4521 86.1695L1.54639 64.8617V22.2469Z" fill="#C4C4C4"/>
<path opacity="0.5842" d="M1.57324 22.248L38.4523 0.956055L75.3313 22.248V64.832L38.4523 86.1244L1.57324 64.832V22.248Z" fill="#C3C3C3"/>
<path opacity="0.5941" d="M1.59961 22.2492L38.452 0.972168L75.3044 22.2492V64.8023L38.452 86.0793L1.59961 64.8023V22.2492Z" fill="#C2C2C2"/>
<path opacity="0.604" d="M1.62646 22.2494L38.4522 0.988281L75.2779 22.2494V64.7721L38.4522 86.0337L1.62646 64.7721V22.2494Z" fill="#C1C1C1"/>
<path opacity="0.6139" d="M1.65308 22.2506L38.4521 1.00488L75.2512 22.2506V64.7424L38.4521 85.9885L1.65308 64.7424V22.2506Z" fill="#C0C0C0"/>
<path opacity="0.6238" d="M1.67993 22.2517L38.4523 1.021L75.2248 22.2517V64.7127L38.4523 85.9434L1.67993 64.7127V22.2517Z" fill="#BFBFBF"/>
<path opacity="0.6337" d="M1.7063 22.2529L38.4521 1.0376L75.1978 22.2529V64.683L38.4521 85.8983L1.7063 64.683V22.2529Z" fill="#BEBEBE"/>
<path opacity="0.6436" d="M1.73315 22.2526L38.4523 1.05322L75.1714 22.2526V64.6523L38.4523 85.8522L1.73315 64.6523V22.2526Z" fill="#BDBDBD"/>
<path opacity="0.6535" d="M1.75977 22.2538L38.4522 1.06934L75.1447 22.2538V64.6221L38.4522 85.807L1.75977 64.6221V22.2538Z" fill="#BCBCBC"/>
<path opacity="0.6634" d="M1.78638 22.2549L38.4522 1.08594L75.118 22.2549V64.5924L38.4522 85.7619L1.78638 64.5924V22.2549Z" fill="#BBBBBB"/>
<path opacity="0.6733" d="M1.81299 22.2551L38.4521 1.10205L75.0913 22.2551V64.5623L38.4521 85.7163L1.81299 64.5623V22.2551Z" fill="#BABABA"/>
<path opacity="0.6832" d="M1.83984 22.2563L38.4523 1.11816L75.0648 22.2563V64.5326L38.4523 85.6711L1.83984 64.5326V22.2563Z" fill="#B9B9B9"/>
<path opacity="0.6931" d="M1.86646 22.2575L38.4523 1.13477L75.0381 22.2575V64.5029L38.4523 85.626L1.86646 64.5029V22.2575Z" fill="#B8B8B8"/>
<path opacity="0.703" d="M1.89307 22.2576L38.4522 1.15039L75.0114 22.2576V64.4722L38.4522 85.5799L1.89307 64.4722V22.2576Z" fill="#B7B7B7"/>
<path opacity="0.7129" d="M1.91968 22.2583L38.4522 1.1665L74.9847 22.2583V64.4425L38.4522 85.5348L1.91968 64.4425V22.2583Z" fill="#B6B6B6"/>
<path opacity="0.7228" d="M1.94653 22.2595L38.4524 1.18311L74.9583 22.2595V64.4128L38.4524 85.4896L1.94653 64.4128V22.2595Z" fill="#B5B5B5"/>
<path opacity="0.7327" d="M1.9729 22.2607L38.4521 1.19971L74.9313 22.2607V64.3826L38.4521 85.4445L1.9729 64.3826V22.2607Z" fill="#B4B4B4"/>
<path opacity="0.7426" d="M1.99951 22.2618L38.4521 1.21582L74.9046 22.2618V64.3529L38.4521 85.3994L1.99951 64.3529V22.2618Z" fill="#B3B3B3"/>
<path opacity="0.7525" d="M2.02637 22.2616L38.4523 1.23145L74.8782 22.2616V64.3222L38.4523 85.3528L2.02637 64.3222V22.2616Z" fill="#B1B1B1"/>
<path opacity="0.7624" d="M2.05273 22.2627L38.452 1.24756L74.8512 22.2627V64.2925L38.452 85.3081L2.05273 64.2925V22.2627Z" fill="#B0B0B0"/>
<path opacity="0.7723" d="M2.07959 22.2634L38.4522 1.26367L74.8248 22.2634V64.2623L38.4522 85.2621L2.07959 64.2623V22.2634Z" fill="#AFAFAF"/>
<path opacity="0.7822" d="M2.1062 22.2646L38.4521 1.28027L74.7981 22.2646V64.2326L38.4521 85.2169L2.1062 64.2326V22.2646Z" fill="#AEAEAE"/>
<path opacity="0.7921" d="M2.13306 22.2652L38.4524 1.29639L74.7717 22.2652V64.2029L38.4524 85.1718L2.13306 64.2029V22.2652Z" fill="#ADADAD"/>
<path opacity="0.802" d="M2.15991 22.2664L38.4521 1.31299L74.7447 22.2664V64.1732L38.4521 85.1267L2.15991 64.1732V22.2664Z" fill="#ACACAC"/>
<path opacity="0.8119" d="M2.18677 22.2666L38.4523 1.32861L74.7183 22.2666V64.1426L38.4523 85.0806L2.18677 64.1426V22.2666Z" fill="#ABABAB"/>
<path opacity="0.8218" d="M2.21338 22.2678L38.4522 1.34521L74.6911 22.2678V64.1124L38.4522 85.0354L2.21338 64.1124V22.2678Z" fill="#AAAAAA"/>
<path opacity="0.8317" d="M2.23999 22.2685L38.4522 1.36133L74.6644 22.2685V64.0827L38.4522 84.9903L2.23999 64.0827V22.2685Z" fill="#A9A9A9"/>
<path opacity="0.8416" d="M2.2666 22.2691L38.4522 1.37744L74.6377 22.2691V64.0525L38.4522 84.9447L2.2666 64.0525V22.2691Z" fill="#A8A8A8"/>
<path opacity="0.8515" d="M2.29346 22.2703L38.4524 1.39404L74.6113 22.2703V64.0228L38.4524 84.8996L2.29346 64.0228V22.2703Z" fill="#A7A7A7"/>
<path opacity="0.8614" d="M2.32007 22.2705L38.4523 1.40967L74.5846 22.2705V63.9926L38.4523 84.8539L2.32007 63.9926V22.2705Z" fill="#A6A6A6"/>
<path opacity="0.8713" d="M2.34668 22.2717L38.4523 1.42627L74.5579 22.2717V63.9629L38.4523 84.8088L2.34668 63.9629V22.2717Z" fill="#A5A5A5"/>
<path opacity="0.8812" d="M2.37329 22.2728L38.4522 1.44238L74.5312 22.2728V63.9332L38.4522 84.7636L2.37329 63.9332V22.2728Z" fill="#A4A4A4"/>
<path opacity="0.8911" d="M2.3999 22.274L38.4522 1.45898L74.5045 22.274V63.9035L38.4522 84.7185L2.3999 63.9035V22.274Z" fill="#A3A3A3"/>
<path opacity="0.901" d="M2.42651 22.2742L38.4521 1.4751L74.4778 22.2742V63.8734L38.4521 84.6729L2.42651 63.8734V22.2742Z" fill="#A2A2A2"/>
<path opacity="0.9109" d="M2.45312 22.2749L38.4521 1.49072L74.4511 22.2749V63.8432L38.4521 84.6273L2.45312 63.8432V22.2749Z" fill="#A1A1A1"/>
<path opacity="0.9208" d="M2.47998 22.2755L38.4523 1.50684L74.4246 22.2755V63.8125L38.4523 84.5817L2.47998 63.8125V22.2755Z" fill="#A0A0A0"/>
<path opacity="0.9307" d="M2.50635 22.2762L38.452 1.52295L74.3977 22.2762V63.7823L38.452 84.5361L2.50635 63.7823V22.2762Z" fill="#9F9F9F"/>
<path opacity="0.9406" d="M2.5332 22.2769L38.4522 1.53906L74.3712 22.2769V63.7526L38.4522 84.4909L2.5332 63.7526V22.2769Z" fill="#9E9E9E"/>
<path opacity="0.9505" d="M2.55981 22.2786L38.4522 1.55615L74.3445 22.2786V63.7234L38.4522 84.4463L2.55981 63.7234V22.2786Z" fill="#9D9D9D"/>
<path opacity="0.9604" d="M2.58667 22.2793L38.4524 1.57227L74.3181 22.2793V63.6932L38.4524 84.4007L2.58667 63.6932V22.2793Z" fill="#9C9C9C"/>
<path opacity="0.9703" d="M2.61304 22.2799L38.4521 1.58789L74.2911 22.2799V63.663L38.4521 84.355L2.61304 63.663V22.2799Z" fill="#9B9B9B"/>
<path opacity="0.9802" d="M2.63989 22.2801L38.4523 1.604L74.2647 22.2801V63.6328L38.4523 84.3094L2.63989 63.6328V22.2801Z" fill="#9A9A9A"/>
<path opacity="0.9901" d="M2.6665 22.2813L38.4522 1.62061L74.238 22.2813V63.6032L38.4522 84.2643L2.6665 63.6032V22.2813Z" fill="#999999"/>
<path d="M2.69312 22.2824L38.4522 1.63672L74.2113 22.2824V63.5734L38.4522 84.2192L2.69312 63.5734V22.2824Z" fill="#989898"/>
<path d="M2.69312 22.2824L38.4522 1.63672L74.2113 22.2824V63.5734L38.4522 84.2192L2.69312 63.5734V22.2824Z" fill="#D1D1D1"/>
<path d="M2.91626 22.4112L38.4523 1.89502L73.9883 22.4112V63.4445L38.4523 83.9617L2.91626 63.4445V22.4112Z" fill="#D4D4D4"/>
<path d="M3.13965 22.5399L38.4522 2.15234L73.7651 22.5399V63.3156L38.4522 83.7037L3.13965 63.3156V22.5399Z" fill="#D6D6D6"/>
<path d="M3.36255 22.6687L38.452 2.41016L73.5415 22.6687V63.1867L38.452 83.4457L3.36255 63.1867V22.6687Z" fill="#D9D9D9"/>
<path d="M3.58569 22.7979L38.4521 2.66797L73.3185 22.7979V63.0583L38.4521 83.1882L3.58569 63.0583V22.7979Z" fill="#DCDCDC"/>
<path d="M3.80884 22.9262L38.4522 2.92529L73.0955 22.9262V62.9289L38.4522 82.9302L3.80884 62.9289V22.9262Z" fill="#DEDEDE"/>
<path d="M4.03223 23.0554L38.4521 3.18311L72.8719 23.0554V62.8L38.4521 82.6727L4.03223 62.8V23.0554Z" fill="#E1E1E1"/>
<path d="M4.25562 23.1837L38.4524 3.44043L72.6492 23.1837V62.6711L38.4524 82.4147L4.25562 62.6711V23.1837Z" fill="#E3E3E3"/>
<path d="M4.47852 23.3134L38.4522 3.69873L72.4255 23.3134V62.5426L38.4522 82.1577L4.47852 62.5426V23.3134Z" fill="#E6E6E6"/>
<path d="M4.70166 23.4426L38.4523 3.95654L72.2025 23.4426V62.4142L38.4523 81.9002L4.70166 62.4142V23.4426Z" fill="#E9E9E9"/>
<path d="M4.92529 23.5704L38.4524 4.21338L71.9796 23.5704V62.2843L38.4524 81.6413L4.92529 62.2843V23.5704Z" fill="#EBEBEB"/>
<path d="M5.14819 62.1564V23.7001L38.4523 4.47168L71.7559 23.7001V62.1564L38.4523 81.3843L5.14819 62.1564Z" fill="#EEEEEE"/>
<path d="M4.90552 62.2515V23.5147L38.4523 4.14648L71.9991 23.5147V62.2515L38.4523 81.6198L4.90552 62.2515Z" fill="#EEEEEE"/>
<path d="M4.66284 62.3467V23.3298L38.4523 3.82129L72.2418 23.3298V62.3467L38.4523 81.8552L4.66284 62.3467Z" fill="#EEEEEE"/>
<path d="M4.41943 62.4429V23.1454L38.4521 3.49658L72.4843 23.1454V62.4429L38.4521 82.0917L4.41943 62.4429Z" fill="#EEEEEE"/>
<path d="M4.177 62.5381V22.9604L38.4523 3.17139L72.7272 22.9604V62.5381L38.4523 82.3271L4.177 62.5381Z" fill="#EEEEEE"/>
<path d="M3.93433 62.6333V22.7751L38.4524 2.84619L72.9704 22.7751V62.6333L38.4524 82.5626L3.93433 62.6333Z" fill="#EEEEEE"/>
<path d="M3.69141 62.7294V22.5906L38.4521 2.52148L73.2129 22.5906V62.7294L38.4521 82.7986L3.69141 62.7294Z" fill="#EEEEEE"/>
<path d="M3.44849 62.8246V22.4057L38.4524 2.19629L73.4558 22.4057V62.8246L38.4524 83.034L3.44849 62.8246Z" fill="#EEEEEE"/>
<path d="M3.20557 62.9203V22.2213L38.4521 1.87158L73.6983 22.2213V62.9203L38.4521 83.27L3.20557 62.9203Z" fill="#EEEEEE"/>
<path d="M2.96313 63.0159V22.0364L38.4524 1.54639L73.9412 22.0364V63.0159L38.4524 83.5055L2.96313 63.0159Z" fill="#EEEEEE"/>
<path d="M2.72021 63.1111V21.851L38.4522 1.22119L74.1841 21.851V63.1111L38.4522 83.741L2.72021 63.1111Z" fill="#EEEEEE"/>
<path d="M2.47778 63.2063V21.6661L38.4524 0.895996L74.4271 21.6661V63.2063L38.4524 83.9765L2.47778 63.2063Z" fill="#EEEEEE"/>
<path d="M38.452 79.6683L6.63403 61.2984V24.5578L38.452 6.1875L70.2701 24.5578V61.2984L38.452 79.6683ZM8.10702 60.4478L38.452 77.9671L68.7971 60.4478V25.4079L38.452 7.88869L8.10702 25.4079V60.4478Z" fill="#595959"/>
<path d="M40.6177 67.4955L38.4521 66.3574L36.287 67.4955L36.7004 65.0845L34.9487 63.3768L37.3696 63.0256L38.4521 60.8315L39.5346 63.0256L41.9555 63.3768L40.2038 65.0845L40.6177 67.4955Z" fill="#595959"/>
<path d="M28.5572 64.9982L26.9135 64.1345L25.2703 64.9982L25.5845 63.1689L24.2546 61.8726L26.0919 61.6061L26.9135 59.9414L27.7351 61.6061L29.5724 61.8726L28.2429 63.1689L28.5572 64.9982Z" fill="#595959"/>
<path d="M51.6338 64.9982L49.9906 64.1345L48.3474 64.9982L48.6612 63.1689L47.3318 61.8726L49.169 61.6061L49.9906 59.9414L50.8123 61.6061L52.6495 61.8726L51.3206 63.1689L51.6338 64.9982Z" fill="#595959"/>
<path d="M59.1764 61.6767L58.0485 61.0833L56.9201 61.6767L57.1362 60.4202L56.2234 59.5308L57.4845 59.3479L58.0485 58.2051L58.6124 59.3479L59.8731 59.5308L58.9608 60.4202L59.1764 61.6767Z" fill="#595959"/>
<path d="M19.9842 61.6767L18.8559 61.0833L17.728 61.6767L17.9435 60.4202L17.0308 59.5308L18.2919 59.3479L18.8559 58.2051L19.4203 59.3479L20.681 59.5308L19.7687 60.4202L19.9842 61.6767Z" fill="#595959"/>
<path d="M40.6177 24.5214L38.4521 23.3833L36.287 24.5214L36.7004 22.1104L34.9487 20.4032L37.3696 20.051L38.4521 17.8579L39.5346 20.051L41.9555 20.4032L40.2038 22.1104L40.6177 24.5214Z" fill="#595959"/>
<path d="M28.5572 26.5729L26.9135 25.7087L25.2703 26.5729L25.5845 24.7431L24.2546 23.4469L26.0919 23.1803L26.9135 21.5156L27.7351 23.1803L29.5724 23.4469L28.2429 24.7431L28.5572 26.5729Z" fill="#595959"/>
<path d="M51.6338 26.5729L49.9906 25.7087L48.3474 26.5729L48.6612 24.7431L47.3318 23.4469L49.169 23.1803L49.9906 21.5156L50.8123 23.1803L52.6495 23.4469L51.3206 24.7431L51.6338 26.5729Z" fill="#595959"/>
<path d="M59.1764 28.1464L58.0485 27.5535L56.9201 28.1464L57.1362 26.8904L56.2234 26.001L57.4845 25.8177L58.0485 24.6753L58.6124 25.8177L59.8731 26.001L58.9608 26.8904L59.1764 28.1464Z" fill="#595959"/>
<path d="M19.9842 28.1464L18.8559 27.5535L17.728 28.1464L17.9435 26.8904L17.0308 26.001L18.2919 25.8177L18.8559 24.6753L19.4203 25.8177L20.681 26.001L19.7687 26.8904L19.9842 28.1464Z" fill="#595959"/>
<path d="M19.1973 37.4526V36.9746H23.4222V37.4526H21.5758V42.8013H21.0438V37.4526H19.1973ZM25.5795 42.8923C25.202 42.8923 24.8682 42.7965 24.578 42.605C24.2897 42.4134 24.064 42.1488 23.9009 41.8112C23.7378 41.4717 23.6562 41.08 23.6562 40.6362C23.6562 40.1886 23.7378 39.795 23.9009 39.4555C24.064 39.1141 24.2897 38.8486 24.578 38.6589C24.8682 38.4673 25.202 38.3715 25.5795 38.3715C25.9569 38.3715 26.2898 38.4673 26.5781 38.6589C26.8664 38.8505 27.0921 39.116 27.2552 39.4555C27.4202 39.795 27.5027 40.1886 27.5027 40.6362C27.5027 41.08 27.4212 41.4717 27.2581 41.8112C27.0949 42.1488 26.8683 42.4134 26.5781 42.605C26.2898 42.7965 25.9569 42.8923 25.5795 42.8923ZM25.5795 42.4286C25.883 42.4286 26.14 42.347 26.3505 42.1839C26.561 42.0208 26.7203 41.8036 26.8285 41.5324C26.9385 41.2612 26.9935 40.9624 26.9935 40.6362C26.9935 40.31 26.9385 40.0103 26.8285 39.7372C26.7203 39.464 26.561 39.245 26.3505 39.08C26.14 38.9149 25.883 38.8324 25.5795 38.8324C25.2779 38.8324 25.0209 38.9149 24.8085 39.08C24.5979 39.245 24.4377 39.464 24.3277 39.7372C24.2196 40.0103 24.1655 40.31 24.1655 40.6362C24.1655 40.9624 24.2196 41.2612 24.3277 41.5324C24.4377 41.8036 24.5979 42.0208 24.8085 42.1839C25.019 42.347 25.276 42.4286 25.5795 42.4286ZM28.6144 44.44V38.4313H29.1066V39.2649H29.1664C29.2271 39.134 29.3105 39.0003 29.4167 38.8637C29.5229 38.7253 29.6633 38.6086 29.8378 38.5138C30.0142 38.419 30.2361 38.3715 30.5035 38.3715C30.8639 38.3715 31.1788 38.4664 31.4481 38.656C31.7193 38.8438 31.9298 39.1075 32.0797 39.447C32.2314 39.7846 32.3073 40.1781 32.3073 40.6277C32.3073 41.0791 32.2314 41.4745 32.0797 41.814C31.9298 42.1535 31.7193 42.4181 31.4481 42.6078C31.1788 42.7975 30.8658 42.8923 30.5092 42.8923C30.2456 42.8923 30.0246 42.8449 29.8463 42.7501C29.6699 42.6552 29.5267 42.5386 29.4167 42.4001C29.3086 42.2598 29.2252 42.1232 29.1664 41.9904H29.1208V44.44H28.6144ZM29.1152 40.6191C29.1152 40.9719 29.1673 41.2849 29.2716 41.558C29.3778 41.8292 29.5296 42.0426 29.7268 42.1981C29.926 42.3518 30.1669 42.4286 30.4495 42.4286C30.7397 42.4286 30.9843 42.3489 31.1835 42.1896C31.3845 42.0284 31.5372 41.8112 31.6415 41.5381C31.7478 41.2649 31.8009 40.9586 31.8009 40.6191C31.8009 40.2834 31.7487 39.9809 31.6444 39.7116C31.542 39.4422 31.3902 39.2288 31.1892 39.0714C30.9881 38.9121 30.7416 38.8324 30.4495 38.8324C30.165 38.8324 29.9231 38.9093 29.724 39.0629C29.5248 39.2146 29.3731 39.4252 29.2688 39.6945C29.1664 39.9619 29.1152 40.2701 29.1152 40.6191ZM35.7853 42.8013H35.2277L37.3473 36.9746H37.9163L40.0358 42.8013H39.4782L37.6517 37.666H37.6119L35.7853 42.8013ZM36.1865 40.5679H39.0771V41.0459H36.1865V40.5679ZM41.3517 42.8013L40.0316 38.4313H40.5664L41.602 42.036H41.639L42.6718 38.4313H43.2095L44.2337 42.0274H44.2735L45.3091 38.4313H45.844L44.5239 42.8013H44.0004L42.9648 39.2194H42.9107L41.8751 42.8013H41.3517ZM48.0489 42.9008C47.7852 42.9008 47.5444 42.8496 47.3262 42.7472C47.1081 42.6429 46.9346 42.4931 46.8056 42.2977C46.6766 42.1004 46.6121 41.8615 46.6121 41.5807C46.6121 41.3645 46.6529 41.1824 46.7345 41.0345C46.816 40.8866 46.9317 40.7652 47.0816 40.6703C47.2314 40.5755 47.4087 40.5006 47.6136 40.4456C47.8184 40.3906 48.0441 40.3479 48.2907 40.3176C48.5354 40.2872 48.7421 40.2607 48.9109 40.2379C49.0816 40.2151 49.2116 40.1791 49.3007 40.1298C49.3898 40.0805 49.4344 40.0008 49.4344 39.8908V39.7884C49.4344 39.4906 49.3453 39.2564 49.167 39.0856C48.9906 38.9131 48.7364 38.8268 48.4045 38.8268C48.0897 38.8268 47.8327 38.896 47.6335 39.0344C47.4362 39.1729 47.2978 39.336 47.2181 39.5238L46.7373 39.3502C46.8359 39.1113 46.9725 38.9206 47.147 38.7784C47.3215 38.6342 47.5169 38.5309 47.7331 38.4683C47.9493 38.4038 48.1684 38.3715 48.3903 38.3715C48.5572 38.3715 48.7307 38.3934 48.9109 38.437C49.093 38.4806 49.2618 38.5565 49.4173 38.6646C49.5729 38.7708 49.699 38.9197 49.7957 39.1113C49.8925 39.3009 49.9408 39.5418 49.9408 39.8339V42.8013H49.4344V42.1099H49.4031C49.3424 42.2389 49.2523 42.3641 49.1328 42.4855C49.0133 42.6069 48.8635 42.7064 48.6833 42.7842C48.5031 42.862 48.2917 42.9008 48.0489 42.9008ZM48.1172 42.4371C48.3865 42.4371 48.6198 42.3774 48.817 42.2579C49.0143 42.1384 49.166 41.98 49.2722 41.7827C49.3804 41.5836 49.4344 41.3645 49.4344 41.1255V40.4939C49.3965 40.53 49.3329 40.5622 49.2438 40.5907C49.1565 40.6191 49.0551 40.6447 48.9394 40.6675C48.8256 40.6884 48.7118 40.7064 48.598 40.7215C48.4842 40.7367 48.3817 40.75 48.2907 40.7614C48.0441 40.7917 47.8336 40.8391 47.6591 40.9036C47.4846 40.9681 47.3509 41.0573 47.258 41.1711C47.165 41.283 47.1186 41.4271 47.1186 41.6035C47.1186 41.869 47.2134 42.0748 47.4031 42.2209C47.5927 42.365 47.8308 42.4371 48.1172 42.4371ZM51.288 42.8013V38.4313H51.7801V39.1027H51.8171C51.9044 38.8827 52.0561 38.7054 52.2723 38.5707C52.4905 38.4341 52.737 38.3659 53.0121 38.3659C53.0538 38.3659 53.1002 38.3668 53.1515 38.3687C53.2027 38.3706 53.2453 38.3725 53.2795 38.3744V38.8893C53.2567 38.8855 53.2169 38.8799 53.16 38.8723C53.1031 38.8647 53.0414 38.8609 52.9751 38.8609C52.7475 38.8609 52.5445 38.9093 52.3662 39.006C52.1898 39.1008 52.0504 39.2326 51.948 39.4014C51.8456 39.5703 51.7944 39.7628 51.7944 39.979V42.8013H51.288ZM55.584 42.8923C55.2255 42.8923 54.9116 42.7975 54.6423 42.6078C54.3729 42.4181 54.1624 42.1535 54.0107 41.814C53.8608 41.4745 53.7859 41.0791 53.7859 40.6277C53.7859 40.1781 53.8608 39.7846 54.0107 39.447C54.1624 39.1075 54.3739 38.8438 54.6451 38.656C54.9163 38.4664 55.2321 38.3715 55.5925 38.3715C55.858 38.3715 56.079 38.419 56.2554 38.5138C56.4318 38.6067 56.5731 38.7224 56.6793 38.8609C56.7855 38.9993 56.868 39.134 56.9268 39.2649H56.9723V36.9746H57.4816V42.8013H56.9866V41.9904H56.9268C56.868 42.1232 56.7846 42.2598 56.6765 42.4001C56.5684 42.5386 56.4252 42.6552 56.2469 42.7501C56.0705 42.8449 55.8495 42.8923 55.584 42.8923ZM55.6437 42.4286C55.9263 42.4286 56.1672 42.3518 56.3664 42.1981C56.5655 42.0426 56.7172 41.8292 56.8216 41.558C56.9278 41.2849 56.9809 40.9719 56.9809 40.6191C56.9809 40.2701 56.9287 39.9619 56.8244 39.6945C56.7201 39.4252 56.5684 39.2146 56.3692 39.0629C56.17 38.9093 55.9282 38.8324 55.6437 38.8324C55.3516 38.8324 55.1051 38.9121 54.904 39.0714C54.7049 39.2288 54.5531 39.4422 54.4488 39.7116C54.3464 39.9809 54.2952 40.2834 54.2952 40.6191C54.2952 40.9586 54.3473 41.2649 54.4516 41.5381C54.556 41.8112 54.7077 42.0284 54.9069 42.1896C55.1079 42.3489 55.3535 42.4286 55.6437 42.4286ZM29.373 52.8013V52.4115L31.2763 50.272C31.5248 49.9913 31.7249 49.7514 31.8766 49.5522C32.0284 49.3531 32.1384 49.1691 32.2066 49.0003C32.2768 48.8315 32.3119 48.656 32.3119 48.474C32.3119 48.2521 32.2597 48.0586 32.1554 47.8936C32.053 47.7267 31.9117 47.5967 31.7315 47.5038C31.5513 47.4109 31.3484 47.3644 31.1227 47.3644C30.8837 47.3644 30.6741 47.4156 30.4939 47.518C30.3156 47.6205 30.1772 47.7608 30.0786 47.9391C29.9799 48.1174 29.9306 48.3222 29.9306 48.5536H29.4213C29.4213 48.2312 29.4953 47.9457 29.6433 47.6973C29.7931 47.4469 29.997 47.2506 30.2549 47.1083C30.5148 46.9661 30.8088 46.895 31.1369 46.895C31.4612 46.895 31.7495 46.9651 32.0018 47.1055C32.2541 47.244 32.4523 47.4327 32.5964 47.6717C32.7406 47.9106 32.8126 48.1781 32.8126 48.474C32.8126 48.6883 32.7747 48.896 32.6988 49.097C32.6249 49.2981 32.4968 49.5219 32.3148 49.7685C32.1327 50.015 31.8804 50.3166 31.558 50.6732L30.1127 52.2863V52.3233H32.9947V52.8013H29.373ZM36.0723 52.8809C35.6627 52.8809 35.3127 52.7633 35.0225 52.5281C34.7342 52.2911 34.5123 51.9487 34.3568 51.5011C34.2031 51.0535 34.1263 50.5158 34.1263 49.888C34.1263 49.262 34.2031 48.7262 34.3568 48.2805C34.5123 47.8329 34.7352 47.4905 35.0254 47.2534C35.3175 47.0145 35.6664 46.895 36.0723 46.895C36.4782 46.895 36.8263 47.0145 37.1165 47.2534C37.4086 47.4905 37.6314 47.8329 37.7851 48.2805C37.9406 48.7262 38.0183 49.262 38.0183 49.888C38.0183 50.5158 37.9406 51.0535 37.7851 51.5011C37.6314 51.9487 37.4095 52.2911 37.1193 52.5281C36.831 52.7633 36.482 52.8809 36.0723 52.8809ZM36.0723 52.403C36.5219 52.403 36.8727 52.1839 37.125 51.7458C37.3773 51.3057 37.5034 50.6865 37.5034 49.888C37.5034 49.3569 37.4455 48.9036 37.3298 48.528C37.216 48.1506 37.052 47.8623 36.8377 47.6631C36.6252 47.464 36.3701 47.3644 36.0723 47.3644C35.6266 47.3644 35.2767 47.5863 35.0225 48.0301C34.7684 48.4721 34.6413 49.0913 34.6413 49.888C34.6413 50.419 34.6982 50.8723 34.812 51.2479C34.9277 51.6234 35.0917 51.9098 35.3042 52.1071C35.5185 52.3043 35.7746 52.403 36.0723 52.403ZM39.1763 52.8013V52.4115L41.0796 50.272C41.3281 49.9913 41.5282 49.7514 41.6799 49.5522C41.8316 49.3531 41.9417 49.1691 42.0099 49.0003C42.0801 48.8315 42.1152 48.656 42.1152 48.474C42.1152 48.2521 42.063 48.0586 41.9587 47.8936C41.8563 47.7267 41.715 47.5967 41.5348 47.5038C41.3546 47.4109 41.1517 47.3644 40.926 47.3644C40.687 47.3644 40.4774 47.4156 40.2972 47.518C40.1189 47.6205 39.9805 47.7608 39.8818 47.9391C39.7832 48.1174 39.7339 48.3222 39.7339 48.5536H39.2246C39.2246 48.2312 39.2986 47.9457 39.4466 47.6973C39.5964 47.4469 39.8003 47.2506 40.0582 47.1083C40.3181 46.9661 40.6121 46.895 40.9402 46.895C41.2645 46.895 41.5528 46.9651 41.8051 47.1055C42.0573 47.244 42.2556 47.4327 42.3997 47.6717C42.5439 47.9106 42.6159 48.1781 42.6159 48.474C42.6159 48.6883 42.578 48.896 42.5021 49.097C42.4282 49.2981 42.3001 49.5219 42.118 49.7685C41.936 50.015 41.6837 50.3166 41.3613 50.6732L39.916 52.2863V52.3233H42.798V52.8013H39.1763ZM44.0662 52.8013V52.4115L45.9695 50.272C46.218 49.9913 46.4181 49.7514 46.5698 49.5522C46.7216 49.3531 46.8316 49.1691 46.8998 49.0003C46.97 48.8315 47.0051 48.656 47.0051 48.474C47.0051 48.2521 46.9529 48.0586 46.8486 47.8936C46.7462 47.7267 46.6049 47.5967 46.4247 47.5038C46.2445 47.4109 46.0416 47.3644 45.8159 47.3644C45.5769 47.3644 45.3673 47.4156 45.1871 47.518C45.0088 47.6205 44.8704 47.7608 44.7718 47.9391C44.6731 48.1174 44.6238 48.3222 44.6238 48.5536H44.1145C44.1145 48.2312 44.1885 47.9457 44.3365 47.6973C44.4863 47.4469 44.6902 47.2506 44.9481 47.1083C45.208 46.9661 45.502 46.895 45.8301 46.895C46.1544 46.895 46.4427 46.9651 46.695 47.1055C46.9473 47.244 47.1455 47.4327 47.2896 47.6717C47.4338 47.9106 47.5058 48.1781 47.5058 48.474C47.5058 48.6883 47.4679 48.896 47.392 49.097C47.3181 49.2981 47.19 49.5219 47.008 49.7685C46.8259 50.015 46.5736 50.3166 46.2512 50.6732L44.8059 52.2863V52.3233H47.6879V52.8013H44.0662Z" fill="black"/>
</svg>
