<svg width="154" height="34" viewBox="0 0 154 34" fill="none" xmlns="http://www.w3.org/2000/svg">
<path fill-rule="evenodd" clip-rule="evenodd" d="M28.689 16.5854L19.3065 17.1303L15.1405 24.3436C15.105 24.4048 15.105 24.4756 15.1405 24.5369C15.176 24.5983 15.2372 24.6338 15.3083 24.6338H19.4533H23.9905C24.0615 24.6338 24.1227 24.5983 24.1584 24.5369L26.4276 20.6095L28.7228 16.6337C28.7422 16.6031 28.7422 16.5676 28.7228 16.5353L26.4276 12.5612L24.1599 8.6338C24.1227 8.57242 24.0615 8.53711 23.9905 8.53711H19.4533H15.3097C15.2389 8.53711 15.1775 8.57242 15.1404 8.6338C15.1049 8.69494 15.1049 8.76757 15.1404 8.82892L19.305 16.0371L28.689 16.5854ZM14.1323 9.70116H4.5064C4.23866 9.70116 4.01288 9.87519 3.94349 10.1331L3.81933 10.5974C3.79517 10.6878 3.81293 10.7765 3.86945 10.8507C3.92581 10.9248 4.00636 10.9635 4.09991 10.9635H13.4032L12.4808 12.5613L12.2065 13.0352H9.01454C8.74839 13.0352 8.52261 13.2077 8.45334 13.4658L8.3275 13.9317C8.30322 14.022 8.3211 14.1107 8.37906 14.1848C8.43542 14.2588 8.51618 14.2976 8.60976 14.2976H11.4775L10.5211 15.9534H4.97588C4.62909 15.9534 4.34514 16.2372 4.34514 16.5854C4.34514 16.932 4.62909 17.2173 4.97588 17.2173H10.5211L11.8662 19.5455H10.0404C9.77271 19.5455 9.54689 19.718 9.47751 19.9759L9.35325 20.4417C9.32927 20.5322 9.34674 20.6191 9.40329 20.6933C9.45965 20.7675 9.54029 20.8078 9.63402 20.8078H12.5952L13.3453 22.1057H11.6969C11.3759 22.1057 11.1146 22.3669 11.1146 22.6878V22.786C11.1146 23.1069 11.3759 23.3682 11.6969 23.3682H14.0743L18.2822 16.5853L14.1323 9.70116ZM2.45161 9.70116H0.632148C0.283765 9.70116 0 9.98487 0 10.3331C0 10.6796 0.283735 10.9635 0.632148 10.9635H2.04518C2.31295 10.9635 2.53874 10.791 2.60653 10.5331L2.73234 10.067C2.75632 9.97683 2.73877 9.88977 2.68228 9.81546C2.62421 9.74148 2.54354 9.70116 2.45161 9.70116ZM6.95969 13.0351H3.67428C3.3273 13.0351 3.04195 13.319 3.04195 13.6656V13.6673C3.04195 14.0138 3.32733 14.2976 3.67428 14.2976H6.55485C6.82097 14.2976 7.04678 14.1252 7.11614 13.8671L7.24039 13.4012C7.2644 13.3109 7.2484 13.2239 7.19036 13.1481C7.13382 13.0755 7.05329 13.0351 6.95969 13.0351ZM7.9856 19.5455H6.21298C5.8661 19.5455 5.58231 19.8292 5.58231 20.1759C5.58231 20.5241 5.8661 20.8079 6.21298 20.8079H7.57902C7.84679 20.8079 8.07272 20.6337 8.14202 20.3758L8.26618 19.9115C8.29046 19.8212 8.27263 19.7325 8.21618 19.6583C8.15808 19.5842 8.07915 19.5455 7.9856 19.5455ZM10.0742 22.1058H7.6533C7.30651 22.1058 7.02094 22.3894 7.02094 22.7377C7.02094 23.0843 7.30654 23.3682 7.6533 23.3682H10.0742C10.3952 23.3682 10.6565 23.107 10.6565 22.7861V22.6878C10.6565 22.3669 10.3952 22.1058 10.0742 22.1058Z" fill="url(#paint0_linear_13803_50)"/>
<path fill-rule="evenodd" clip-rule="evenodd" d="M31.5001 6.68938L18.9808 1.79621L6.45957 6.68938C6.3 7.69533 6.20663 8.70134 6.17743 9.70102H4.50635C4.54032 8.45147 4.66772 7.19397 4.89356 5.93476L4.9758 5.47199L18.9808 0L19.284 0.119428L32.9842 5.47199L33.0663 5.93476C34.0599 11.4744 33.1567 17.0061 30.7438 21.7719C28.3292 26.5393 24.4016 30.5425 19.3468 33.0222L18.9808 33.201L18.613 33.0222C14.1323 30.8246 10.5388 27.4293 8.09842 23.3681H10.0741C12.2581 26.6715 15.2855 29.4461 18.9808 31.3372C23.5194 29.0124 27.055 25.3543 29.2502 21.019C31.4388 16.6982 32.2987 11.705 31.5001 6.68938Z" fill="url(#paint1_linear_13803_50)"/>
<path d="M52.4491 26.4724C50.6961 26.4724 49.1644 26.3308 47.8541 26.0475C46.5438 25.7464 45.4459 25.3215 44.5606 24.7725C43.6752 24.2236 43.0023 23.5773 42.5419 22.8336C42.0815 22.0899 41.8248 21.2754 41.7717 20.39H46.2073C46.3136 20.815 46.5172 21.2134 46.8182 21.5852C47.1192 21.9394 47.5177 22.2581 48.0135 22.5414C48.527 22.807 49.1467 23.0195 49.8727 23.1789C50.6164 23.3206 51.4752 23.3914 52.4491 23.3914C53.6709 23.3914 54.7068 23.2851 55.5567 23.0727C56.4244 22.8602 57.0795 22.5503 57.5222 22.143C57.9826 21.7358 58.2128 21.24 58.2128 20.6556C58.2128 20.3015 58.1243 19.9916 57.9472 19.726C57.7701 19.4604 57.4868 19.239 57.0973 19.062C56.7254 18.8672 56.2385 18.7255 55.6364 18.637L49.2353 17.8402C48.1728 17.6985 47.2078 17.5037 46.3401 17.2558C45.4725 16.9902 44.7288 16.6449 44.109 16.22C43.507 15.795 43.0377 15.2726 42.7013 14.6529C42.3826 14.0154 42.2232 13.2717 42.2232 12.4218C42.2232 11.5541 42.4445 10.775 42.8872 10.0844C43.3299 9.37613 43.9762 8.78294 44.8262 8.30484C45.6761 7.80904 46.712 7.42834 47.9338 7.16273C49.1556 6.89712 50.5456 6.76432 52.1038 6.76432C53.7152 6.76432 55.114 6.89712 56.3004 7.16273C57.4868 7.42834 58.4784 7.80904 59.2752 8.30484C60.0721 8.80065 60.6741 9.38498 61.0814 10.0579C61.5064 10.7307 61.7454 11.4656 61.7985 12.2624H57.3629C57.292 11.7843 57.053 11.3682 56.6457 11.014C56.2385 10.6422 55.6541 10.3589 54.8927 10.1641C54.1313 9.95161 53.1663 9.84537 51.9976 9.84537C50.8466 9.84537 49.8639 9.94276 49.0493 10.1375C48.2525 10.3323 47.6505 10.6068 47.2432 10.9609C46.8536 11.3151 46.6589 11.74 46.6589 12.2358C46.6589 12.6077 46.774 12.9441 47.0041 13.2452C47.2343 13.5285 47.5619 13.7587 47.9869 13.9357C48.4296 14.1128 48.9519 14.2456 49.554 14.3341L56.2208 15.1575C57.5842 15.3169 58.744 15.6179 59.7002 16.0606C60.6564 16.5033 61.3913 17.0876 61.9048 17.8136C62.4183 18.5396 62.675 19.425 62.675 20.4697C62.675 21.4613 62.4537 22.329 62.011 23.0727C61.5683 23.8164 60.9132 24.445 60.0455 24.9585C59.1779 25.4543 58.1066 25.835 56.8316 26.1006C55.5744 26.3485 54.1136 26.4724 52.4491 26.4724ZM73.3377 26.4724C71.4785 26.4724 69.876 26.1714 68.5302 25.5694C67.2022 24.9673 66.1752 24.1262 65.4492 23.0461C64.7409 21.9482 64.3867 20.691 64.3867 19.2745C64.3867 18.4068 64.5107 17.61 64.7586 16.884C65.0242 16.1403 65.4049 15.4763 65.9007 14.8919C66.4142 14.2899 67.034 13.7852 67.76 13.378C68.486 12.953 69.3182 12.6343 70.2567 12.4218C71.1952 12.1916 72.2222 12.0765 73.3377 12.0765C74.6835 12.0765 75.8964 12.2358 76.9766 12.5546C78.0567 12.8733 78.9686 13.3691 79.7123 14.042C80.4737 14.6971 81.0492 15.5382 81.4388 16.5653C81.8283 17.5746 82.0143 18.7787 81.9966 20.1775H66.9897V17.9199H77.8265C77.738 17.4241 77.5698 16.9902 77.3219 16.6184C77.074 16.2288 76.7552 15.9012 76.3657 15.6356C75.9761 15.37 75.5246 15.1752 75.0111 15.0513C74.4976 14.9273 73.9309 14.8654 73.3112 14.8654C72.6737 14.8654 72.0894 14.9362 71.5582 15.0778C71.0447 15.2195 70.5843 15.4231 70.177 15.6887C69.7874 15.9366 69.4599 16.2465 69.1943 16.6184C68.9463 16.9725 68.7516 17.3709 68.6099 17.8136C68.486 18.2563 68.424 18.7432 68.424 19.2745C68.424 20.1244 68.6011 20.8858 68.9552 21.5587C69.3271 22.2139 69.8848 22.7362 70.6285 23.1258C71.3722 23.4976 72.293 23.6836 73.3909 23.6836C74.4002 23.6836 75.2501 23.5596 75.9407 23.3117C76.6313 23.0461 77.1536 22.6565 77.5078 22.143H81.7575C81.5273 22.9398 81.0846 23.6658 80.4295 24.321C79.7743 24.9762 78.8624 25.4985 77.6937 25.8881C76.5427 26.2777 75.0908 26.4724 73.3377 26.4724ZM92.8508 31.519C91.328 31.519 89.9645 31.3508 88.7604 31.0143C87.5741 30.6956 86.6002 30.2087 85.8387 29.5535C85.095 28.8983 84.6347 28.0749 84.4576 27.0833H88.5745C88.8401 27.7031 89.3359 28.1458 90.0619 28.4114C90.7879 28.6947 91.7352 28.8363 92.9039 28.8363C93.807 28.8363 94.595 28.7124 95.2678 28.4645C95.9584 28.2166 96.4985 27.8447 96.888 27.3489C97.2776 26.8531 97.4724 26.26 97.4724 25.5694V21.8774L97.8708 22.5946C97.4812 23.232 96.9589 23.7898 96.3037 24.2679C95.6662 24.7283 94.9048 25.0913 94.0195 25.3569C93.1518 25.6225 92.1956 25.7553 91.1509 25.7553C89.7875 25.7553 88.5302 25.4897 87.3793 24.9585C86.2283 24.4273 85.3075 23.657 84.617 22.6477C83.9264 21.6207 83.5811 20.3635 83.5811 18.876C83.5811 17.9907 83.705 17.1939 83.9529 16.4856C84.2185 15.7596 84.5815 15.1221 85.0419 14.5732C85.52 14.0243 86.0778 13.5639 86.7153 13.192C87.3527 12.8202 88.0433 12.5457 88.787 12.3686C89.5484 12.1739 90.3364 12.0765 91.1509 12.0765C92.1956 12.0765 93.1518 12.2004 94.0195 12.4483C94.9048 12.6962 95.6662 13.0592 96.3037 13.5373C96.9589 14.0154 97.4812 14.582 97.8708 15.2372L97.4724 15.9278V12.4483H101.563V25.3834C101.563 26.4813 101.315 27.4198 100.819 28.1989C100.341 28.978 99.6858 29.6155 98.8535 30.1113C98.0213 30.6071 97.0828 30.9612 96.0381 31.1737C95.0111 31.4039 93.9486 31.519 92.8508 31.519ZM92.5852 22.807C93.1695 22.807 93.7096 22.7539 94.2054 22.6477C94.7189 22.5237 95.1793 22.3467 95.5866 22.1165C95.9938 21.8863 96.3391 21.6118 96.6224 21.2931C96.9058 20.9743 97.1182 20.6114 97.2599 20.2041C97.4193 19.7968 97.4989 19.363 97.4989 18.9026C97.4989 18.1058 97.2953 17.4152 96.888 16.8309C96.4808 16.2465 95.9053 15.795 95.1616 15.4763C94.4356 15.1398 93.5768 14.9716 92.5852 14.9716C91.9831 14.9716 91.4254 15.0336 90.9119 15.1575C90.4161 15.2815 89.9734 15.4586 89.5838 15.6887C89.212 15.9012 88.8844 16.1668 88.6011 16.4856C88.3355 16.8043 88.1318 17.1673 87.9902 17.5746C87.8662 17.9818 87.8042 18.4245 87.8042 18.9026C87.8042 19.6817 87.9902 20.3723 88.362 20.9743C88.7516 21.5587 89.3005 22.0102 90.0088 22.329C90.7348 22.6477 91.5936 22.807 92.5852 22.807ZM110.429 26.4724C109.402 26.4724 108.49 26.3308 107.693 26.0475C106.914 25.7464 106.259 25.3215 105.728 24.7725C105.197 24.2236 104.789 23.5507 104.506 22.7539C104.223 21.9394 104.081 21.0186 104.081 19.9916V12.4483H108.198V19.1682C108.198 20.0359 108.331 20.7884 108.596 21.4259C108.88 22.0633 109.314 22.5591 109.898 22.9133C110.482 23.2497 111.217 23.4179 112.102 23.4179C113.041 23.4179 113.838 23.232 114.493 22.8602C115.166 22.4706 115.679 21.9571 116.033 21.3196C116.388 20.6645 116.565 19.9119 116.565 19.062V12.4483H120.655V26.1006H116.565V22.2227L116.963 22.8336C116.432 24.02 115.6 24.9231 114.466 25.5428C113.351 26.1626 112.005 26.4724 110.429 26.4724ZM123.358 26.1006V12.4483H127.448V17.3355L127.129 17.2293C127.395 16.0606 127.758 15.131 128.218 14.4404C128.696 13.7321 129.289 13.2274 129.998 12.9264C130.706 12.6077 131.547 12.4483 132.521 12.4483H133.902V15.9544H132.123C131.202 15.9544 130.387 16.1757 129.679 16.6184C128.971 17.0434 128.422 17.6277 128.032 18.3714C127.643 19.1151 127.448 19.9562 127.448 20.8947V26.1006H123.358ZM141.115 26.4724C139.344 26.4724 137.954 26.1094 136.945 25.3834C135.953 24.6574 135.458 23.657 135.458 22.3821C135.458 21.5852 135.661 20.9035 136.069 20.3369C136.476 19.7703 137.087 19.3099 137.901 18.9557C138.716 18.5839 139.725 18.3448 140.929 18.2386L146.454 17.6277C146.897 17.5923 147.224 17.486 147.437 17.309C147.649 17.1319 147.755 16.8928 147.755 16.5918V16.5653C147.755 16.1757 147.605 15.8481 147.304 15.5825C147.003 15.3169 146.578 15.1133 146.029 14.9716C145.498 14.8299 144.851 14.7591 144.09 14.7591C142.957 14.7591 142.062 14.9008 141.407 15.1841C140.752 15.4497 140.354 15.8481 140.212 16.3793H136.122C136.281 15.4586 136.688 14.6794 137.343 14.042C138.016 13.4045 138.928 12.9176 140.079 12.5811C141.23 12.2447 142.594 12.0765 144.17 12.0765C145.887 12.0765 147.313 12.2624 148.446 12.6343C149.579 13.0061 150.429 13.5727 150.996 14.3341C151.562 15.0778 151.846 16.0163 151.846 17.1496V26.1006H147.941V21.9837L148.366 22.4883C147.959 23.356 147.419 24.0908 146.746 24.6929C146.073 25.2772 145.267 25.7199 144.329 26.0209C143.39 26.3219 142.319 26.4724 141.115 26.4724ZM142.549 23.6836C143.275 23.6836 143.948 23.5862 144.568 23.3914C145.205 23.1966 145.763 22.931 146.241 22.5946C146.719 22.2404 147.091 21.842 147.357 21.3993C147.623 20.9389 147.755 20.452 147.755 19.9385V18.2651L148.419 19.2213C148.136 19.3807 147.782 19.5224 147.357 19.6463C146.932 19.7526 146.365 19.8499 145.657 19.9385L141.514 20.4697C140.894 20.5405 140.433 20.6999 140.132 20.9478C139.831 21.178 139.681 21.5144 139.681 21.9571C139.681 22.506 139.92 22.931 140.398 23.232C140.894 23.533 141.611 23.6836 142.549 23.6836Z" fill="white"/>
<defs>
<linearGradient id="paint0_linear_13803_50" x1="0" y1="8.53711" x2="13.726" y2="33.0421" gradientUnits="userSpaceOnUse">
<stop stop-color="#FF512F"/>
<stop offset="1" stop-color="#DD2476"/>
</linearGradient>
<linearGradient id="paint1_linear_13803_50" x1="4.50635" y1="0" x2="37.3993" y2="28.6889" gradientUnits="userSpaceOnUse">
<stop stop-color="#FF512F"/>
<stop offset="1" stop-color="#DD2476"/>
</linearGradient>
</defs>
</svg>
