<svg width="35" height="35" viewBox="0 0 35 35" fill="none" xmlns="http://www.w3.org/2000/svg">
<g clip-path="url(#clip0_14072_15307)">
<path d="M26.6089 23.1533C25.4655 22.0244 24.038 22.0244 22.9018 23.1533C22.0351 24.0127 21.1684 24.8721 20.3163 25.7461C20.0832 25.9864 19.8866 26.0374 19.6025 25.8772C19.0417 25.5713 18.4445 25.3237 17.9055 24.9886C15.3929 23.4082 13.288 21.3762 11.4235 19.0893C10.4986 17.9531 9.67556 16.7368 9.10019 15.3676C8.98366 15.0908 9.00551 14.9087 9.23129 14.683C10.098 13.8454 10.9428 12.986 11.795 12.1266C12.9821 10.9321 12.9821 9.53375 11.7877 8.33203C11.1103 7.64741 10.433 6.97736 9.75568 6.29274C9.05649 5.59356 8.36459 4.88709 7.65813 4.19519C6.51467 3.08086 5.08717 3.08086 3.95099 4.20247C3.07701 5.06188 2.23945 5.94315 1.3509 6.788C0.527903 7.56729 0.112763 8.52139 0.0253645 9.63572C-0.113016 11.4492 0.331258 13.1608 0.95761 14.8286C2.23945 18.2808 4.19134 21.3471 6.55837 24.1584C9.75568 27.9602 13.5721 30.9681 18.0366 33.1385C20.0468 34.1144 22.1298 34.8646 24.3949 34.9884C25.9534 35.0758 27.3081 34.6825 28.3933 33.4662C29.1362 32.636 29.9738 31.8785 30.7603 31.0846C31.9256 29.9048 31.9329 28.4773 30.7749 27.312C29.3911 25.9209 28 24.5371 26.6089 23.1533Z" fill="url(#paint0_linear_14072_15307)"/>
<path d="M25.2172 17.3484L27.9047 16.8895C27.4823 14.4205 26.317 12.1846 24.5472 10.4075C22.6754 8.53573 20.3084 7.35586 17.701 6.9917L17.3223 9.69376C19.3397 9.9778 21.1751 10.8882 22.6244 12.3375C23.9936 13.7068 24.8895 15.4402 25.2172 17.3484Z" fill="url(#paint1_linear_14072_15307)"/>
<path d="M29.4202 5.66631C26.3175 2.56368 22.3919 0.604503 18.0584 0L17.6797 2.70206C21.4232 3.22644 24.8172 4.92342 27.4974 7.59635C30.0392 10.1382 31.7071 13.35 32.3116 16.8824L34.9991 16.4235C34.2926 12.3304 32.3626 8.61599 29.4202 5.66631Z" fill="url(#paint2_linear_14072_15307)"/>
</g>
<defs>
<linearGradient id="paint0_linear_14072_15307" x1="0" y1="3.36035" x2="31.6397" y2="34.9992" gradientUnits="userSpaceOnUse">
<stop stop-color="#FF512F"/>
<stop offset="1" stop-color="#DD2476"/>
</linearGradient>
<linearGradient id="paint1_linear_14072_15307" x1="17.3223" y1="6.9917" x2="27.6765" y2="17.5717" gradientUnits="userSpaceOnUse">
<stop stop-color="#FF512F"/>
<stop offset="1" stop-color="#DD2476"/>
</linearGradient>
<linearGradient id="paint2_linear_14072_15307" x1="17.6797" y1="0" x2="34.5566" y2="17.3137" gradientUnits="userSpaceOnUse">
<stop stop-color="#FF512F"/>
<stop offset="1" stop-color="#DD2476"/>
</linearGradient>
<clipPath id="clip0_14072_15307">
<rect width="35" height="35" fill="white"/>
</clipPath>
</defs>
</svg>
