<svg width="72" height="21" viewBox="0 0 72 21" fill="none" xmlns="http://www.w3.org/2000/svg">
<path d="M18.6479 0H21.9472V20.3694H18.6479V0Z" fill="white"/>
<path d="M33.4229 13.9139C33.4229 17.0697 30.8408 17.3566 29.9802 17.3566C27.9719 17.3566 27.685 15.4918 27.685 14.4877V6.59814H24.3857V14.3443C24.3857 16.2091 24.9595 17.9304 26.1071 18.9345C27.1112 19.9387 28.4022 20.369 29.9802 20.369C31.1277 20.369 32.5622 20.0821 33.4229 19.2214V20.369H36.7221V6.59814H33.4229V13.9139Z" fill="white"/>
<path d="M43.1778 1.57764H39.8785V6.59827H37.4399V9.75409H39.8785V20.3691H43.1778V9.75409H45.6164V6.59827H43.1778V1.57764Z" fill="white"/>
<path d="M55.9443 16.2093C55.2271 16.7831 54.223 17.2135 53.2188 17.2135C50.9237 17.2135 49.3458 15.4921 49.3458 13.197C49.3458 10.9018 50.9237 9.3239 53.2188 9.3239C54.223 9.3239 55.2271 9.61079 55.9443 10.328L56.3747 10.7584L58.6698 8.60667L58.096 8.17633C56.805 7.02875 55.0836 6.31152 53.2188 6.31152C49.2023 6.31152 46.1899 9.3239 46.1899 13.3404C46.1899 17.3569 49.2023 20.3693 53.2188 20.3693C55.0836 20.3693 56.805 19.6521 58.096 18.5045L58.6698 18.0741L56.3747 15.779L55.9443 16.2093Z" fill="white"/>
<path d="M70.2888 7.74612C69.2847 6.74199 68.2806 6.31165 66.7027 6.31165C65.5551 6.31165 64.4075 6.59854 63.5468 7.45922V0H60.2476V20.3694H63.5468V12.7667C63.5468 9.61092 65.6985 9.32403 66.5592 9.32403C68.5675 9.32403 68.424 11.1888 68.424 12.193V20.226H71.7233V12.3364C71.7233 10.4716 71.2929 8.75024 70.2888 7.74612Z" fill="white"/>
<path d="M53.0754 15.6352C54.343 15.6352 55.3706 14.6076 55.3706 13.3401C55.3706 12.0725 54.343 11.0449 53.0754 11.0449C51.8078 11.0449 50.7803 12.0725 50.7803 13.3401C50.7803 14.6076 51.8078 15.6352 53.0754 15.6352Z" fill="#EF4335"/>
<path d="M14.0578 15.3484C12.9102 16.496 11.1888 17.2132 9.32403 17.2132C5.73786 17.2132 3.15582 14.3443 3.15582 10.4712C3.15582 6.59817 5.73786 3.72924 9.46747 3.72924C11.1888 3.72924 12.9102 4.44647 14.2012 5.73749L14.6315 6.16783L16.7832 4.01614L16.3529 3.58579C14.4881 1.72099 12.0495 0.716863 9.46747 0.716863C4.0165 0.573416 0 4.87681 0 10.4712C0 16.0656 4.0165 20.369 9.32403 20.369C11.9061 20.369 14.4881 19.3649 16.2095 17.5001L16.6398 17.0698L14.4881 14.9181L14.0578 15.3484Z" fill="white"/>
</svg>
