<svg width="82" height="24" viewBox="0 0 82 24" fill="none" xmlns="http://www.w3.org/2000/svg">
<path d="M21.3201 0H25.0921V23.288H21.3201V0Z" fill="#100077"/>
<path d="M38.2119 15.9079C38.2119 19.5159 35.2599 19.8439 34.2759 19.8439C31.9799 19.8439 31.6519 17.7119 31.6519 16.5639V7.54395H27.8799V16.3999C27.8799 18.5319 28.5359 20.4999 29.8479 21.6479C30.9959 22.7959 32.4719 23.2879 34.2759 23.2879C35.5879 23.2879 37.2279 22.9599 38.2119 21.9759V23.2879H41.9839V7.54395H38.2119V15.9079Z" fill="#100077"/>
<path d="M49.364 1.80371H45.592V7.54371H42.804V11.1517H45.592V23.2877H49.364V11.1517H52.152V7.54371H49.364V1.80371Z" fill="#100077"/>
<path d="M63.9601 18.5318C63.1401 19.1878 61.9921 19.6798 60.8441 19.6798C58.2201 19.6798 56.4161 17.7118 56.4161 15.0878C56.4161 12.4638 58.2201 10.6598 60.8441 10.6598C61.9921 10.6598 63.1401 10.9878 63.9601 11.8078L64.4521 12.2998L67.0761 9.83982L66.4201 9.34782C64.9441 8.03582 62.9761 7.21582 60.8441 7.21582C56.2521 7.21582 52.8081 10.6598 52.8081 15.2518C52.8081 19.8438 56.2521 23.2878 60.8441 23.2878C62.9761 23.2878 64.9441 22.4678 66.4201 21.1558L67.0761 20.6638L64.4521 18.0398L63.9601 18.5318Z" fill="#100077"/>
<path d="M80.3599 8.856C79.2119 7.708 78.0639 7.216 76.2599 7.216C74.9479 7.216 73.6359 7.544 72.6519 8.528V0H68.8799V23.288H72.6519V14.596C72.6519 10.988 75.1119 10.66 76.0959 10.66C78.3919 10.66 78.2279 12.792 78.2279 13.94V23.124H81.9999V14.104C81.9999 11.972 81.5079 10.004 80.3599 8.856Z" fill="#100077"/>
<path d="M60.6799 17.8759C62.1291 17.8759 63.3039 16.7011 63.3039 15.2519C63.3039 13.8027 62.1291 12.6279 60.6799 12.6279C59.2307 12.6279 58.0559 13.8027 58.0559 15.2519C58.0559 16.7011 59.2307 17.8759 60.6799 17.8759Z" fill="#EF4335"/>
<path d="M16.072 17.5479C14.76 18.8599 12.792 19.6799 10.66 19.6799C6.56 19.6799 3.608 16.3999 3.608 11.9719C3.608 7.5439 6.56 4.2639 10.824 4.2639C12.792 4.2639 14.76 5.0839 16.236 6.5599L16.728 7.0519L19.188 4.5919L18.696 4.0999C16.564 1.9679 13.776 0.819901 10.824 0.819901C4.592 0.655901 0 5.5759 0 11.9719C0 18.3679 4.592 23.2879 10.66 23.2879C13.612 23.2879 16.564 22.1399 18.532 20.0079L19.024 19.5159L16.564 17.0559L16.072 17.5479Z" fill="#100077"/>
</svg>
