<svg width="35" height="35" viewBox="0 0 35 35" fill="none" xmlns="http://www.w3.org/2000/svg">
<path d="M20.425 21.4437C19.5543 22.0242 18.5428 22.3311 17.5 22.3311C16.4572 22.3311 15.4458 22.0242 14.575 21.4437L0.233037 11.8821C0.153467 11.829 0.0759473 11.7737 0 11.7169V27.3846C0 29.181 1.45776 30.6066 3.22198 30.6066H31.7779C33.5743 30.6066 34.9999 29.1488 34.9999 27.3846V11.7168C34.9238 11.7738 34.8462 11.8292 34.7664 11.8824L20.425 21.4437Z" fill="url(#paint0_linear_14072_15317)"/>
<path d="M1.37061 10.1757L15.7126 19.7374C16.2555 20.0994 16.8777 20.2803 17.4999 20.2803C18.1222 20.2803 18.7445 20.0993 19.2874 19.7374L33.6294 10.1757C34.4876 9.6039 35 8.64687 35 7.61396C35 5.83791 33.5551 4.39307 31.7791 4.39307H3.22089C1.44491 4.39313 0 5.83798 0 7.61566C0 8.64686 0.512422 9.6039 1.37061 10.1757Z" fill="url(#paint1_linear_14072_15317)"/>
<defs>
<linearGradient id="paint0_linear_14072_15317" x1="0" y1="11.7168" x2="15.7905" y2="40.9741" gradientUnits="userSpaceOnUse">
<stop stop-color="#FF512F"/>
<stop offset="1" stop-color="#DD2476"/>
</linearGradient>
<linearGradient id="paint1_linear_14072_15317" x1="0" y1="4.39307" x2="11.9591" y2="30.7391" gradientUnits="userSpaceOnUse">
<stop stop-color="#FF512F"/>
<stop offset="1" stop-color="#DD2476"/>
</linearGradient>
</defs>
</svg>
