<svg width="35" height="35" viewBox="0 0 35 35" fill="none" xmlns="http://www.w3.org/2000/svg">
<path d="M17.5 0C11.35 0 6.2207 4.954 6.2207 11.2793C6.2207 13.6857 6.94381 15.8315 8.33157 17.8422L16.6368 30.8018C17.0397 31.4318 17.9611 31.4305 18.3632 30.8018L26.7045 17.7981C28.0623 15.8785 28.7793 13.6245 28.7793 11.2793C28.7793 5.05989 23.7194 0 17.5 0ZM17.5 16.4062C14.6731 16.4062 12.373 14.1062 12.373 11.2793C12.373 8.45243 14.6731 6.15234 17.5 6.15234C20.3269 6.15234 22.627 8.45243 22.627 11.2793C22.627 14.1062 20.3269 16.4062 17.5 16.4062Z" fill="url(#paint0_linear_14072_15296)"/>
<path d="M25.5161 23.563L20.3528 31.6353C19.0163 33.7191 15.9762 33.7122 14.6461 31.6373L9.47447 23.5651C4.9242 24.6172 2.11914 26.5444 2.11914 28.8475C2.11914 32.8439 10.0439 34.9999 17.5 34.9999C24.9561 34.9999 32.8809 32.8439 32.8809 28.8475C32.8809 26.5428 30.0719 24.6145 25.5161 23.563Z" fill="url(#paint1_linear_14072_15296)"/>
<defs>
<linearGradient id="paint0_linear_14072_15296" x1="6.2207" y1="0" x2="35.897" y2="21.4063" gradientUnits="userSpaceOnUse">
<stop stop-color="#FF512F"/>
<stop offset="1" stop-color="#DD2476"/>
</linearGradient>
<linearGradient id="paint1_linear_14072_15296" x1="2.11914" y1="23.563" x2="9.59059" y2="43.6589" gradientUnits="userSpaceOnUse">
<stop stop-color="#FF512F"/>
<stop offset="1" stop-color="#DD2476"/>
</linearGradient>
</defs>
</svg>
