<svg width="61" height="61" viewBox="0 0 61 61" fill="none" xmlns="http://www.w3.org/2000/svg">
<path fill-rule="evenodd" clip-rule="evenodd" d="M52.2959 30.2323L35.1931 31.2256L27.5989 44.3744C27.5342 44.486 27.5342 44.615 27.5989 44.7269C27.6636 44.8387 27.7753 44.9035 27.9048 44.9035H35.4606H43.7313C43.8607 44.9035 43.9723 44.8387 44.0372 44.7269L48.1737 37.5677L52.3575 30.3204C52.3929 30.2646 52.3929 30.2 52.3575 30.1412L48.1737 22.897L44.0401 15.7378C43.9723 15.6259 43.8607 15.5615 43.7312 15.5615H35.4605H27.9074C27.7783 15.5615 27.6664 15.6259 27.5988 15.7378C27.5341 15.8492 27.5341 15.9816 27.5988 16.0934L35.1903 29.2329L52.2959 30.2323ZM25.7612 17.6834H8.21452C7.72647 17.6834 7.3149 18.0007 7.18841 18.4708L6.96208 19.3172C6.91804 19.4819 6.95043 19.6436 7.05345 19.7788C7.15619 19.9139 7.30302 19.9845 7.47355 19.9845H24.4322L22.7507 22.897L22.2506 23.7608H16.4322C15.9471 23.7608 15.5355 24.0753 15.4092 24.5458L15.1798 25.395C15.1356 25.5597 15.1682 25.7213 15.2738 25.8565C15.3766 25.9914 15.5238 26.0621 15.6944 26.0621H20.9219L19.1784 29.0804H9.07031C8.43816 29.0804 7.92057 29.5976 7.92057 30.2323C7.92057 30.8643 8.43816 31.3842 9.07031 31.3842H19.1784L21.6305 35.6282H18.3023C17.8142 35.6282 17.4026 35.9427 17.2761 36.4127L17.0496 37.262C17.0059 37.4268 17.0378 37.5853 17.1408 37.7205C17.2436 37.8558 17.3906 37.9293 17.5614 37.9293H22.9592L24.3265 40.2952H21.3217C20.7366 40.2952 20.2603 40.7713 20.2603 41.3562V41.5353C20.2603 42.1202 20.7366 42.5964 21.3217 42.5964H25.6554L33.3259 30.2322L25.7612 17.6834ZM4.46893 17.6834H1.15231C0.517264 17.6834 0 18.2006 0 18.8353C0 19.467 0.517209 19.9845 1.15231 19.9845H3.72807C4.21618 19.9845 4.62775 19.67 4.75134 19.2L4.98067 18.3503C5.02438 18.1859 4.99237 18.0272 4.88941 17.8918C4.78355 17.7569 4.6365 17.6834 4.46893 17.6834ZM12.6865 23.7608H6.69768C6.0652 23.7608 5.54504 24.2783 5.54504 24.91V24.9131C5.54504 25.5448 6.06525 26.0621 6.69768 26.0621H11.9486C12.4337 26.0621 12.8453 25.7478 12.9717 25.2774L13.1982 24.4281C13.242 24.2634 13.2128 24.1048 13.107 23.9667C13.0039 23.8343 12.8571 23.7608 12.6865 23.7608ZM14.5566 35.6283H11.3254C10.6931 35.6283 10.1757 36.1454 10.1757 36.7774C10.1757 37.4122 10.6931 37.9293 11.3254 37.9293H13.8155C14.3036 37.9293 14.7154 37.6119 14.8417 37.1418L15.0681 36.2953C15.1123 36.1308 15.0798 35.9691 14.9769 35.8338C14.871 35.6987 14.7271 35.6283 14.5566 35.6283ZM18.3638 40.2952H13.9509C13.3187 40.2952 12.7982 40.8123 12.7982 41.4472C12.7982 42.079 13.3188 42.5965 13.9509 42.5965H18.3638C18.9489 42.5965 19.4253 42.1204 19.4253 41.5354V41.3563C19.4253 40.7713 18.9489 40.2952 18.3638 40.2952Z" fill="url(#paint0_linear_13885_6053)"/>
<path fill-rule="evenodd" clip-rule="evenodd" d="M57.4204 12.1938L34.5995 3.27423L11.775 12.1938C11.4842 14.0275 11.314 15.8613 11.2607 17.6836H8.2146C8.27653 15.4058 8.50876 13.1136 8.92044 10.8182L9.07034 9.97465L34.5995 0L35.1521 0.2177L60.1256 9.97465L60.2753 10.8182C62.0864 20.9162 60.44 30.9997 56.0417 39.687C51.6403 48.3774 44.4809 55.6746 35.2667 60.1946L34.5995 60.5207L33.929 60.1946C25.7613 56.1888 19.211 49.9997 14.7624 42.5966H18.3639C22.345 48.6183 27.8635 53.676 34.5995 57.1232C42.8727 52.8855 49.3175 46.2172 53.3191 38.3146C57.3086 30.4384 58.8761 21.3365 57.4204 12.1938Z" fill="url(#paint1_linear_13885_6053)"/>
<defs>
<linearGradient id="paint0_linear_13885_6053" x1="0" y1="15.5615" x2="25.0206" y2="60.2306" gradientUnits="userSpaceOnUse">
<stop stop-color="#FF512F"/>
<stop offset="1" stop-color="#DD2476"/>
</linearGradient>
<linearGradient id="paint1_linear_13885_6053" x1="8.2146" y1="0" x2="68.1738" y2="52.2957" gradientUnits="userSpaceOnUse">
<stop stop-color="#FF512F"/>
<stop offset="1" stop-color="#DD2476"/>
</linearGradient>
</defs>
</svg>
