<svg width="35" height="35" viewBox="0 0 35 35" fill="none" xmlns="http://www.w3.org/2000/svg">
<path d="M17.5 6.01563C15.2286 6.01563 13.0082 6.68917 11.1196 7.95109C9.23103 9.21301 7.75905 11.0066 6.88983 13.1051C6.0206 15.2036 5.79317 17.5127 6.2363 19.7405C6.67943 21.9682 7.77321 24.0146 9.37933 25.6207C10.9854 27.2268 13.0318 28.3206 15.2595 28.7637C17.4873 29.2068 19.7964 28.9794 21.8949 28.1102C23.9934 27.241 25.787 25.769 27.0489 23.8804C28.3108 21.9918 28.9844 19.7714 28.9844 17.5C28.9811 14.4552 27.77 11.536 25.617 9.38299C23.464 7.22997 20.5448 6.01895 17.5 6.01563ZM22.7281 21.4594C22.6263 21.5883 22.4968 21.6927 22.3491 21.7647C22.2013 21.8366 22.0393 21.8743 21.875 21.875C21.6277 21.877 21.3875 21.7918 21.1967 21.6344L16.8217 18.3531C16.6929 18.2512 16.5887 18.1216 16.5167 17.9739C16.4448 17.8262 16.4071 17.6643 16.4063 17.5V9.84375C16.4063 9.55367 16.5215 9.27547 16.7266 9.07035C16.9317 8.86523 17.2099 8.75 17.5 8.75C17.7901 8.75 18.0683 8.86523 18.2734 9.07035C18.4785 9.27547 18.5938 9.55367 18.5938 9.84375V16.975L22.5533 19.9281C22.6671 20.0159 22.7622 20.1256 22.8328 20.2507C22.9035 20.3759 22.9483 20.514 22.9646 20.6568C22.9809 20.7996 22.9684 20.9442 22.9278 21.082C22.8871 21.2199 22.8193 21.3482 22.7281 21.4594Z" fill="url(#paint0_linear_14072_15324)"/>
<path d="M17.5 1.09375C14.2552 1.09375 11.0832 2.05596 8.38518 3.8587C5.68719 5.66144 3.58436 8.22375 2.34261 11.2216C1.10086 14.2194 0.77596 17.5182 1.409 20.7007C2.04204 23.8832 3.60458 26.8065 5.89904 29.101C8.19349 31.3954 11.1168 32.958 14.2993 33.591C17.4818 34.224 20.7806 33.8991 23.7784 32.6574C26.7763 31.4156 29.3386 29.3128 31.1413 26.6148C32.944 23.9168 33.9063 20.7449 33.9063 17.5C33.901 13.1504 32.1708 8.9805 29.0951 5.90487C26.0195 2.82925 21.8496 1.09904 17.5 1.09375ZM17.5 31.2448C14.7815 31.2448 12.1241 30.4387 9.86382 28.9284C7.6035 27.4181 5.8418 25.2714 4.80149 22.7599C3.76118 20.2484 3.48899 17.4848 4.01934 14.8185C4.54968 12.1523 5.85874 9.70322 7.78098 7.78098C9.70323 5.85874 12.1523 4.54967 14.8185 4.01933C17.4848 3.48898 20.2484 3.76118 22.7599 4.80149C25.2714 5.84179 27.4181 7.6035 28.9284 9.86381C30.4387 12.1241 31.2448 14.7815 31.2448 17.5C31.2413 21.1443 29.792 24.6383 27.2152 27.2151C24.6383 29.792 21.1443 31.2413 17.5 31.2448Z" fill="url(#paint1_linear_14072_15324)"/>
<defs>
<linearGradient id="paint0_linear_14072_15324" x1="6.01562" y1="6.01563" x2="28.9844" y2="28.9844" gradientUnits="userSpaceOnUse">
<stop stop-color="#FF512F"/>
<stop offset="1" stop-color="#DD2476"/>
</linearGradient>
<linearGradient id="paint1_linear_14072_15324" x1="1.09375" y1="1.09375" x2="33.9063" y2="33.9063" gradientUnits="userSpaceOnUse">
<stop stop-color="#FF512F"/>
<stop offset="1" stop-color="#DD2476"/>
</linearGradient>
</defs>
</svg>
