<svg width="124" height="26" viewBox="0 0 124 26" fill="none" xmlns="http://www.w3.org/2000/svg">
<path d="M32.9829 6H45.5615V8.43902H40.7236V21.6098H37.8208V8.43902H32.9829V6ZM44.8358 10.1463H47.2547V12.3415C47.2547 12.0976 47.4966 11.8537 47.7385 11.3659C47.9804 10.878 48.2223 10.878 48.4642 10.6341C48.7061 10.3902 49.1899 10.1463 49.4318 10.1463C49.6737 9.90244 50.1575 9.90244 50.6413 9.90244C50.8832 9.90244 51.1251 9.90244 51.1251 9.90244H51.367V12.3415C51.1251 12.3415 51.1251 12.3415 50.8832 12.3415C50.6413 12.3415 50.6413 12.3415 50.3994 12.3415C49.9156 12.3415 49.6737 12.3415 49.1899 12.5854C48.7061 12.8293 48.4642 13.0732 48.2223 13.3171C47.9804 13.561 47.7385 14.0488 47.4966 14.5366C47.2547 15.0244 47.2547 15.5122 47.2547 16.2439V21.6098H44.8358V10.1463ZM62.736 21.6098H60.3171V20.1463C60.0752 20.6341 59.5914 21.122 58.8657 21.6098C58.3819 21.8537 57.6562 22.0976 56.9305 22.0976C55.4792 22.0976 54.5116 21.8537 53.7859 20.8781C53.0602 19.9024 52.8183 18.9268 52.8183 17.4634V10.3902H55.2373V17.2195C55.2373 18.1951 55.4792 18.9268 55.7211 19.4146C56.2049 19.9024 56.6887 20.1463 57.4143 20.1463C57.8981 20.1463 58.3819 20.1463 58.6238 19.9024C58.8657 19.6585 59.3495 19.4146 59.3495 19.1707C59.5914 18.9268 59.8333 18.6829 59.8333 18.1951C59.8333 17.7073 60.0752 17.4634 60.0752 16.9756V10.3902H62.4941V21.6098H62.736ZM66.8483 17.9512C66.8483 18.6829 67.0901 19.1707 67.5739 19.4146C68.0577 19.6585 68.5415 19.9024 69.2672 19.9024C69.5091 19.9024 69.751 19.9024 69.9929 19.9024C70.2348 19.9024 70.4767 19.9024 70.7186 19.6585C70.9605 19.6585 71.2024 19.4146 71.4443 19.1707C71.6862 18.9268 71.6862 18.6829 71.6862 18.439C71.6862 18.1951 71.4443 17.9512 71.4443 17.7073C71.2024 17.4634 70.9605 17.4634 70.7186 17.2195C70.4767 17.2195 69.9929 16.9756 69.5091 16.9756C69.0253 16.9756 68.5415 16.7317 68.2996 16.7317C67.8158 16.7317 67.332 16.4878 67.0901 16.2439C66.8482 16 66.3645 16 65.8807 15.7561C65.6388 15.5122 65.155 15.2683 65.155 14.7805C64.9131 14.2927 64.9131 13.8049 64.9131 13.3171C64.9131 12.5854 65.155 12.0976 65.3969 11.8537C65.6388 11.6098 66.1226 11.122 66.6064 10.878C67.0901 10.6341 67.5739 10.3902 68.0577 10.3902C68.5415 10.3902 69.2672 10.1463 69.751 10.1463C70.2348 10.1463 70.9605 10.1463 71.4443 10.3902C71.9281 10.3902 72.4118 10.6341 72.8956 10.878C73.3794 11.122 73.6213 11.6098 73.8632 11.8537C74.1051 12.3415 74.347 12.8293 74.347 13.561H71.6862C71.6862 13.0732 71.2024 12.5854 70.9605 12.3415C70.2348 12.0976 69.751 11.8537 69.2672 11.8537C69.0253 11.8537 68.7834 11.8537 68.5415 11.8537C68.2996 11.8537 68.0577 11.8537 67.8158 12.0976C67.5739 12.0976 67.332 12.3415 67.332 12.3415C67.0901 12.5854 67.0901 12.5854 67.0901 12.8293C67.0901 13.0732 67.0901 13.3171 67.332 13.561C67.5739 13.8049 67.8158 13.8049 68.0577 14.0488C68.2996 14.0488 68.7834 14.2927 69.2672 14.2927C69.751 14.2927 70.2348 14.5366 70.7186 14.5366C71.2024 14.5366 71.6862 14.7805 71.928 15.0244C72.4118 15.2683 72.6537 15.2683 73.1375 15.5122C73.6213 15.7561 73.8632 16 73.8632 16.4878C74.1051 16.9756 74.1051 17.2195 74.1051 17.9512C74.1051 18.6829 73.8632 19.1707 73.6213 19.6585C73.3794 20.1463 72.8956 20.3902 72.4118 20.8781C72.1699 21.3659 71.6862 21.6098 71.2024 21.6098C70.7186 21.6098 69.9929 21.8537 69.5091 21.8537C68.7834 21.8537 68.0577 21.8537 67.5739 21.6098C67.0901 21.3659 66.3645 21.122 66.1226 20.8781C65.6388 20.6341 65.3969 20.1463 65.155 19.6585C64.6712 19.1707 64.4293 18.6829 64.4293 17.9512H66.8483ZM75.0727 10.1463H77.0079V6.97561H79.4268V10.3902H81.6039V12.3415H79.4268V18.439C79.4268 18.6829 79.4268 18.9268 79.4268 19.1707C79.4268 19.4146 79.4268 19.4146 79.6687 19.6585C79.9106 19.9024 79.9106 19.9024 79.9106 19.9024C80.1525 19.9024 80.3944 19.9024 80.6363 19.9024C80.8782 19.9024 80.8782 19.9024 81.1201 19.9024C81.362 19.9024 81.362 19.9024 81.6039 19.9024V21.6098C81.362 21.6098 81.1201 21.6098 80.8782 21.6098C80.6363 21.6098 80.3944 21.6098 80.1525 21.6098C79.4268 21.6098 78.943 21.6098 78.7011 21.3659C78.2173 21.3659 77.9754 21.122 77.7335 20.8781C77.4916 20.6341 77.2497 20.3902 77.2497 19.9024C77.2497 19.6585 77.0079 19.1707 77.0079 18.6829V12.0976H75.0727V10.1463ZM83.2971 10.1463H85.7161V11.8537C85.958 11.122 86.4418 10.6341 87.1675 10.3902C87.8931 10.1463 88.3769 9.90244 89.1026 9.90244C90.0702 9.90244 90.7959 10.1463 91.5216 10.3902C92.2473 10.6341 92.7311 11.122 93.2148 11.6098C93.6986 12.0976 93.9405 12.8293 94.1824 13.561C94.4243 14.2927 94.4243 15.0244 94.4243 16C94.4243 16.7317 94.4243 17.4634 94.1824 18.1951C93.9405 18.9268 93.6986 19.4146 93.2148 20.1463C92.7311 20.6341 92.2473 21.122 91.7635 21.3659C91.0378 21.6098 90.554 21.8537 89.5864 21.8537C89.3445 21.8537 88.8607 21.8537 88.6188 21.8537C88.3769 21.8537 87.8931 21.6098 87.6512 21.6098C87.4093 21.3659 86.9256 21.3659 86.6837 21.122C86.4418 20.878 86.1999 20.6341 85.958 20.3902V26H83.539V10.1463H83.2971ZM92.0054 16C92.0054 15.5122 92.0054 15.0244 91.7635 14.5366C91.5216 14.0488 91.5216 13.561 91.2797 13.3171C91.0378 13.0732 90.7959 12.5854 90.3121 12.3415C89.8283 12.0976 89.5864 12.0976 88.8607 12.0976C87.8931 12.0976 86.9256 12.3415 86.4418 13.0732C85.958 13.8049 85.7161 14.7805 85.7161 16C85.7161 16.4878 85.7161 17.2195 85.958 17.4634C86.1999 17.9512 86.1999 18.439 86.6837 18.6829C86.9256 18.9268 87.1675 19.4146 87.6512 19.4146C88.135 19.6585 88.3769 19.6585 88.8607 19.6585C89.3445 19.6585 89.8283 19.6585 90.3121 19.4146C90.7959 19.1707 91.0378 18.9268 91.2797 18.439C91.5216 17.9512 91.7635 17.7073 91.7635 17.2195C91.7635 16.9756 92.0054 16.4878 92.0054 16ZM96.3595 6H98.7784V8.43902H96.3595V6ZM96.3595 10.1463H98.7784V21.6098H96.3595V10.1463ZM100.955 6H103.374V21.6098H100.955V6ZM110.873 21.8537C109.906 21.8537 109.18 21.6098 108.454 21.3659C107.729 21.122 107.245 20.6341 106.761 20.1463C106.277 19.6585 105.793 18.9268 105.551 18.1951C105.31 17.4634 105.068 16.7317 105.068 15.7561C105.068 14.7805 105.31 14.0488 105.551 13.3171C105.793 12.5854 106.277 11.8537 106.761 11.3659C107.245 10.878 107.729 10.3902 108.454 10.1463C109.18 9.90244 109.906 9.65854 110.873 9.65854C111.841 9.65854 112.566 9.90244 113.292 10.1463C114.018 10.3902 114.502 10.878 114.985 11.3659C115.469 11.8537 115.953 12.5854 116.195 13.3171C116.437 14.0488 116.679 14.7805 116.679 15.7561C116.679 16.7317 116.437 17.4634 116.195 18.1951C115.953 18.9268 115.469 19.6585 114.985 20.1463C114.502 20.6341 114.018 21.122 113.292 21.3659C112.566 21.6098 111.841 21.8537 110.873 21.8537ZM110.873 19.9024C111.357 19.9024 111.841 19.9024 112.325 19.6585C112.808 19.4146 113.05 19.1707 113.292 18.6829C113.534 18.1951 113.776 17.9512 113.776 17.4634C113.776 16.9756 114.018 16.4878 114.018 16C114.018 15.5122 114.018 15.0244 113.776 14.5366C113.776 14.0488 113.534 13.561 113.292 13.3171C113.05 13.0732 112.808 12.5854 112.325 12.3415C111.841 12.0976 111.357 12.0976 110.873 12.0976C110.389 12.0976 109.906 12.0976 109.422 12.3415C108.938 12.5854 108.696 12.8293 108.454 13.3171C108.212 13.8049 107.97 14.0488 107.97 14.5366C107.97 15.0244 107.729 15.5122 107.729 16C107.729 16.4878 107.729 16.9756 107.97 17.4634C107.97 17.9512 108.212 18.439 108.454 18.6829C108.696 19.1707 108.938 19.4146 109.422 19.6585C109.906 19.6585 110.389 19.9024 110.873 19.9024ZM117.404 10.1463H119.34V6.97561H121.758V10.3902H123.936V12.3415H121.758V18.439C121.758 18.6829 121.758 18.9268 121.758 19.1707C121.758 19.4146 121.758 19.4146 122 19.6585C122.242 19.9024 122.242 19.9024 122.242 19.9024C122.484 19.9024 122.726 19.9024 122.968 19.9024C123.21 19.9024 123.21 19.9024 123.452 19.9024C123.694 19.9024 123.694 19.9024 123.936 19.9024V21.6098C123.694 21.6098 123.452 21.6098 123.21 21.6098C122.968 21.6098 122.726 21.6098 122.484 21.6098C121.758 21.6098 121.275 21.6098 121.033 21.3659C120.549 21.3659 120.307 21.122 120.065 20.8781C119.823 20.6341 119.581 20.3902 119.581 19.9024C119.581 19.6585 119.34 19.1707 119.34 18.6829V12.0976H117.404V10.1463Z" fill="white"/>
<path d="M26.0893 9.61539H16.0385L13.0447 0L9.83695 9.61539H0L7.91233 15.3846L4.91848 25L13.0447 19.0171L20.957 25L17.9631 15.3846L26.0893 9.61539Z" fill="#00B67A"/>
<path d="M18.6049 17.5215L17.9634 15.3848L13.0449 19.0172L18.6049 17.5215Z" fill="#005128"/>
</svg>
