<svg width="112" height="22" viewBox="0 0 112 22" fill="none" xmlns="http://www.w3.org/2000/svg">
<path d="M21.0824 0H0V21.0545H21.0824V0Z" fill="#00B67A"/>
<path d="M43.702 0H22.6196V21.0545H43.702V0Z" fill="#00B67A"/>
<path d="M66.5411 0H45.4587V21.0545H66.5411V0Z" fill="#00B67A"/>
<path d="M89.1607 0H68.0784V21.0545H89.1607V0Z" fill="#00B67A"/>
<path d="M112 0H90.9175V21.0545H112V0Z" fill="#DCDCE6"/>
<path d="M90.9175 0H101.459V20.8351H90.9175V0Z" fill="#00B67A"/>
<path d="M10.3215 14.036L13.6156 13.1587L14.9333 17.3258L10.3215 14.036ZM17.7882 8.77241H12.0784L10.3215 3.50879L8.56466 8.77241H3.07446L7.68623 12.0622L5.92937 17.3258L10.5411 14.036L13.396 12.0622L17.7882 8.77241Z" fill="white"/>
<path d="M33.1606 14.036L36.4548 13.1587L37.7724 17.3258L33.1606 14.036ZM40.4077 8.77241H34.6979L32.941 3.50879L31.1842 8.77241H25.4744L30.0861 12.0622L28.3293 17.3258L32.941 14.036L35.7959 12.0622L40.4077 8.77241Z" fill="white"/>
<path d="M56 14.036L59.2941 13.1587L60.6118 17.3258L56 14.036ZM63.2471 8.77241H57.5372L55.7804 3.50879L54.0235 8.77241H48.3137L52.9255 12.0622L51.3882 17.3258L56 14.036L58.8549 12.0622L63.2471 8.77241Z" fill="white"/>
<path d="M78.6195 14.036L81.9136 13.1587L83.2313 17.3258L78.6195 14.036ZM86.0862 8.77241H80.3764L78.6195 3.50879L76.8626 8.77241H71.1528L75.7646 12.0622L74.0077 17.3258L78.6195 14.036L81.4744 12.0622L86.0862 8.77241Z" fill="white"/>
<path d="M101.459 14.036L104.753 13.1587L106.071 17.3258L101.459 14.036ZM108.706 8.77241H102.996L101.239 3.50879L99.702 8.77241H93.9922L98.6039 12.0622L96.8471 17.3258L101.459 14.036L104.314 12.0622L108.706 8.77241Z" fill="white"/>
</svg>
