<svg width="124" height="26" viewBox="0 0 124 26" fill="none" xmlns="http://www.w3.org/2000/svg">
<path d="M33 6H45.5851V8.43902H40.7447V21.6098H37.8404V8.43902H33V6ZM44.859 10.1463H47.2793V12.3415C47.2793 12.0976 47.5213 11.8537 47.7633 11.3659C48.0053 10.878 48.2473 10.878 48.4894 10.6341C48.7314 10.3902 49.2154 10.1463 49.4574 10.1463C49.6995 9.90244 50.1835 9.90244 50.6676 9.90244C50.9096 9.90244 51.1516 9.90244 51.1516 9.90244H51.3936V12.3415C51.1516 12.3415 51.1516 12.3415 50.9096 12.3415C50.6676 12.3415 50.6676 12.3415 50.4255 12.3415C49.9415 12.3415 49.6995 12.3415 49.2154 12.5854C48.7314 12.8293 48.4894 13.0732 48.2473 13.3171C48.0053 13.561 47.7633 14.0488 47.5213 14.5366C47.2793 15.0244 47.2793 15.5122 47.2793 16.2439V21.6098H44.859V10.1463ZM62.7686 21.6098H60.3484V20.1463C60.1064 20.6341 59.6223 21.122 58.8963 21.6098C58.4122 21.8537 57.6862 22.0976 56.9601 22.0976C55.508 22.0976 54.5399 21.8537 53.8138 20.8781C53.0878 19.9024 52.8457 18.9268 52.8457 17.4634V10.3902H55.266V17.2195C55.266 18.1951 55.508 18.9268 55.75 19.4146C56.234 19.9024 56.7181 20.1463 57.4441 20.1463C57.9282 20.1463 58.4122 20.1463 58.6543 19.9024C58.8963 19.6585 59.3803 19.4146 59.3803 19.1707C59.6223 18.9268 59.8644 18.6829 59.8644 18.1951C59.8644 17.7073 60.1064 17.4634 60.1064 16.9756V10.3902H62.5266V21.6098H62.7686ZM66.883 17.9512C66.883 18.6829 67.125 19.1707 67.609 19.4146C68.0931 19.6585 68.5771 19.9024 69.3032 19.9024C69.5452 19.9024 69.7872 19.9024 70.0293 19.9024C70.2713 19.9024 70.5133 19.9024 70.7553 19.6585C70.9973 19.6585 71.2394 19.4146 71.4814 19.1707C71.7234 18.9268 71.7234 18.6829 71.7234 18.439C71.7234 18.1951 71.4814 17.9512 71.4814 17.7073C71.2394 17.4634 70.9973 17.4634 70.7553 17.2195C70.5133 17.2195 70.0293 16.9756 69.5452 16.9756C69.0612 16.9756 68.5771 16.7317 68.3351 16.7317C67.8511 16.7317 67.367 16.4878 67.125 16.2439C66.883 16 66.3989 16 65.9149 15.7561C65.6729 15.5122 65.1888 15.2683 65.1888 14.7805C64.9468 14.2927 64.9468 13.8049 64.9468 13.3171C64.9468 12.5854 65.1888 12.0976 65.4309 11.8537C65.6729 11.6098 66.1569 11.122 66.641 10.878C67.125 10.6341 67.609 10.3902 68.0931 10.3902C68.5771 10.3902 69.3032 10.1463 69.7872 10.1463C70.2713 10.1463 70.9973 10.1463 71.4814 10.3902C71.9654 10.3902 72.4495 10.6341 72.9335 10.878C73.4176 11.122 73.6596 11.6098 73.9016 11.8537C74.1436 12.3415 74.3856 12.8293 74.3856 13.561H71.7234C71.7234 13.0732 71.2394 12.5854 70.9973 12.3415C70.2713 12.0976 69.7872 11.8537 69.3032 11.8537C69.0612 11.8537 68.8192 11.8537 68.5771 11.8537C68.3351 11.8537 68.0931 11.8537 67.8511 12.0976C67.609 12.0976 67.367 12.3415 67.367 12.3415C67.125 12.5854 67.125 12.5854 67.125 12.8293C67.125 13.0732 67.125 13.3171 67.367 13.561C67.609 13.8049 67.8511 13.8049 68.0931 14.0488C68.3351 14.0488 68.8191 14.2927 69.3032 14.2927C69.7872 14.2927 70.2713 14.5366 70.7553 14.5366C71.2394 14.5366 71.7234 14.7805 71.9654 15.0244C72.4495 15.2683 72.6915 15.2683 73.1755 15.5122C73.6596 15.7561 73.9016 16 73.9016 16.4878C74.1436 16.9756 74.1436 17.2195 74.1436 17.9512C74.1436 18.6829 73.9016 19.1707 73.6596 19.6585C73.4176 20.1463 72.9335 20.3902 72.4495 20.8781C72.2074 21.3659 71.7234 21.6098 71.2394 21.6098C70.7553 21.6098 70.0293 21.8537 69.5452 21.8537C68.8191 21.8537 68.0931 21.8537 67.609 21.6098C67.125 21.3659 66.3989 21.122 66.1569 20.8781C65.6729 20.6341 65.4308 20.1463 65.1888 19.6585C64.7048 19.1707 64.4628 18.6829 64.4628 17.9512H66.883ZM75.1117 10.1463H77.0479V6.97561H79.4681V10.3902H81.6463V12.3415H79.4681V18.439C79.4681 18.6829 79.4681 18.9268 79.4681 19.1707C79.4681 19.4146 79.4681 19.4146 79.7101 19.6585C79.9521 19.9024 79.9521 19.9024 79.9521 19.9024C80.1942 19.9024 80.4362 19.9024 80.6782 19.9024C80.9202 19.9024 80.9202 19.9024 81.1622 19.9024C81.4043 19.9024 81.4043 19.9024 81.6463 19.9024V21.6098C81.4043 21.6098 81.1622 21.6098 80.9202 21.6098C80.6782 21.6098 80.4362 21.6098 80.1941 21.6098C79.4681 21.6098 78.984 21.6098 78.742 21.3659C78.258 21.3659 78.016 21.122 77.7739 20.8781C77.5319 20.6341 77.2899 20.3902 77.2899 19.9024C77.2899 19.6585 77.0479 19.1707 77.0479 18.6829V12.0976H75.1117V10.1463ZM83.3404 10.1463H85.7606V11.8537C86.0027 11.122 86.4867 10.6341 87.2128 10.3902C87.9388 10.1463 88.4229 9.90244 89.1489 9.90244C90.117 9.90244 90.8431 10.1463 91.5692 10.3902C92.2952 10.6341 92.7793 11.1219 93.2633 11.6098C93.7473 12.0976 93.9894 12.8293 94.2314 13.561C94.4734 14.2927 94.4734 15.0244 94.4734 16C94.4734 16.7317 94.4734 17.4634 94.2314 18.1951C93.9894 18.9268 93.7473 19.4146 93.2633 20.1463C92.7793 20.6341 92.2952 21.122 91.8112 21.3659C91.0851 21.6098 90.6011 21.8537 89.633 21.8537C89.391 21.8537 88.9069 21.8537 88.6649 21.8537C88.4229 21.8537 87.9388 21.6098 87.6968 21.6098C87.4548 21.3659 86.9707 21.3659 86.7287 21.122C86.4867 20.878 86.2447 20.6341 86.0027 20.3902V26H83.5825V10.1463H83.3404ZM92.0532 16C92.0532 15.5122 92.0532 15.0244 91.8112 14.5366C91.5691 14.0488 91.5691 13.561 91.3271 13.3171C91.0851 13.0732 90.8431 12.5854 90.359 12.3415C89.875 12.0976 89.633 12.0976 88.9069 12.0976C87.9388 12.0976 86.9707 12.3415 86.4867 13.0732C86.0027 13.8049 85.7606 14.7805 85.7606 16C85.7606 16.4878 85.7606 17.2195 86.0027 17.4634C86.2447 17.9512 86.2447 18.439 86.7287 18.6829C86.9707 18.9268 87.2128 19.4146 87.6968 19.4146C88.1808 19.6585 88.4229 19.6585 88.9069 19.6585C89.391 19.6585 89.875 19.6585 90.359 19.4146C90.8431 19.1707 91.0851 18.9268 91.3271 18.439C91.5691 17.9512 91.8112 17.7073 91.8112 17.2195C91.8112 16.9756 92.0532 16.4878 92.0532 16ZM96.4096 6H98.8298V8.43902H96.4096V6ZM96.4096 10.1463H98.8298V21.6098H96.4096V10.1463ZM101.008 6H103.428V21.6098H101.008V6ZM110.931 21.8537C109.963 21.8537 109.237 21.6098 108.511 21.3659C107.785 21.122 107.301 20.6341 106.816 20.1463C106.332 19.6585 105.848 18.9268 105.606 18.1951C105.364 17.4634 105.122 16.7317 105.122 15.7561C105.122 14.7805 105.364 14.0488 105.606 13.3171C105.848 12.5854 106.332 11.8537 106.816 11.3659C107.301 10.878 107.785 10.3902 108.511 10.1463C109.237 9.90244 109.963 9.65854 110.931 9.65854C111.899 9.65854 112.625 9.90244 113.351 10.1463C114.077 10.3902 114.561 10.878 115.045 11.3659C115.529 11.8537 116.013 12.5854 116.255 13.3171C116.497 14.0488 116.739 14.7805 116.739 15.7561C116.739 16.7317 116.497 17.4634 116.255 18.1951C116.013 18.9268 115.529 19.6585 115.045 20.1463C114.561 20.6341 114.077 21.122 113.351 21.3659C112.625 21.6098 111.899 21.8537 110.931 21.8537ZM110.931 19.9024C111.415 19.9024 111.899 19.9024 112.383 19.6585C112.867 19.4146 113.109 19.1707 113.351 18.6829C113.593 18.1951 113.835 17.9512 113.835 17.4634C113.835 16.9756 114.077 16.4878 114.077 16C114.077 15.5122 114.077 15.0244 113.835 14.5366C113.835 14.0488 113.593 13.561 113.351 13.3171C113.109 13.0732 112.867 12.5854 112.383 12.3415C111.899 12.0976 111.415 12.0976 110.931 12.0976C110.447 12.0976 109.963 12.0976 109.479 12.3415C108.995 12.5854 108.753 12.8293 108.511 13.3171C108.269 13.8049 108.027 14.0488 108.027 14.5366C108.027 15.0244 107.785 15.5122 107.785 16C107.785 16.4878 107.785 16.9756 108.027 17.4634C108.027 17.9512 108.269 18.439 108.511 18.6829C108.753 19.1707 108.995 19.4146 109.479 19.6585C109.963 19.6585 110.447 19.9024 110.931 19.9024ZM117.465 10.1463H119.402V6.97561H121.822V10.3902H124V12.3415H121.822V18.439C121.822 18.6829 121.822 18.9268 121.822 19.1707C121.822 19.4146 121.822 19.4146 122.064 19.6585C122.306 19.9024 122.306 19.9024 122.306 19.9024C122.548 19.9024 122.79 19.9024 123.032 19.9024C123.274 19.9024 123.274 19.9024 123.516 19.9024C123.758 19.9024 123.758 19.9024 124 19.9024V21.6098C123.758 21.6098 123.516 21.6098 123.274 21.6098C123.032 21.6098 122.79 21.6098 122.548 21.6098C121.822 21.6098 121.338 21.6098 121.096 21.3659C120.612 21.3659 120.37 21.122 120.128 20.8781C119.886 20.6341 119.644 20.3902 119.644 19.9024C119.644 19.6585 119.402 19.1707 119.402 18.6829V12.0976H117.465V10.1463Z" fill="#191919"/>
<path d="M26.1029 9.61539H16.0469L13.0515 0L9.84208 9.61539H0L7.91645 15.3846L4.92104 25L13.0515 19.0171L20.9679 25L17.9725 15.3846L26.1029 9.61539Z" fill="#00B67A"/>
<path d="M18.6147 17.5215L17.9728 15.3848L13.0518 19.0172L18.6147 17.5215Z" fill="#005128"/>
</svg>
